<svg xmlns="http://www.w3.org/2000/svg" width="29" height="30" viewBox="0 0 29 30" fill="none">
<path d="M23.7402 5.63184L14.3721 15M23.7402 5.63184V10.9014M23.7402 5.63184H18.4706M22.5692 15.5855V20.6209C22.5692 21.9326 22.5692 22.5884 22.3139 23.0894C22.0894 23.5301 21.7311 23.8884 21.2905 24.1129C20.7895 24.3682 20.1336 24.3682 18.8219 24.3682H8.75117C7.43951 24.3682 6.78367 24.3682 6.28268 24.1129C5.84199 23.8884 5.48371 23.5301 5.25918 23.0894C5.00391 22.5884 5.00391 21.9326 5.00391 20.6209V10.5501C5.00391 9.23846 5.00391 8.58262 5.25918 8.08163C5.48371 7.64094 5.84199 7.28266 6.28268 7.05813C6.78367 6.80286 7.4395 6.80286 8.75117 6.80286H13.7866" stroke="white" stroke-width="1.8" stroke-linecap="round" stroke-linejoin="round"/>
</svg>
