<svg width="34" height="40" viewBox="0 0 34 40" fill="none" xmlns="http://www.w3.org/2000/svg">
<g id="coffee-svgrepo-com (1) 1" clip-path="url(#clip0_99_4082)">
<path id="Union" fill-rule="evenodd" clip-rule="evenodd" d="M21.0875 3.05258C20.7712 2.91418 20.4025 3.05843 20.2641 3.37476C20.1264 3.68967 20.2687 4.05641 20.5821 4.19623L20.5874 4.19875C20.5944 4.20211 20.6076 4.20865 20.6263 4.21854C20.6636 4.23837 20.722 4.27139 20.7945 4.31897C20.9401 4.41454 21.1384 4.56605 21.3373 4.78359C21.7275 5.21036 22.1354 5.90587 22.1354 6.99171C22.1354 8.07755 21.7275 8.77307 21.3373 9.19984C21.1384 9.41738 20.9401 9.56889 20.7945 9.66445C20.722 9.71203 20.6636 9.74505 20.6263 9.76488C20.6076 9.77477 20.5944 9.78131 20.5874 9.78467L20.5821 9.78719C20.2687 9.92702 20.1264 10.2938 20.2641 10.6087C20.4025 10.925 20.7712 11.0692 21.0875 10.9309L20.8369 10.3581C21.0875 10.9309 21.0878 10.9307 21.0881 10.9306L21.0888 10.9303L21.0903 10.9296L21.0939 10.928L21.1031 10.9239C21.1101 10.9206 21.119 10.9165 21.1296 10.9114C21.1508 10.9012 21.1789 10.8872 21.2129 10.8691C21.2808 10.833 21.3727 10.7806 21.4805 10.7098C21.6956 10.5687 21.9781 10.352 22.2601 10.0435C22.8318 9.41832 23.3857 8.43065 23.3857 6.99171C23.3857 5.55278 22.8318 4.5651 22.2601 3.93988C21.9781 3.63142 21.6956 3.41474 21.4805 3.27361C21.3727 3.20284 21.2808 3.15039 21.2129 3.11433C21.1789 3.09627 21.1508 3.08227 21.1296 3.07207C21.119 3.06697 21.1101 3.06281 21.1031 3.05957L21.0939 3.0554L21.0903 3.05382L21.0888 3.05316L21.0881 3.05285C21.0878 3.05271 21.0875 3.05258 20.8369 3.62534L21.0875 3.05258ZM16.3672 7.99669L16.3694 7.99527L16.3639 7.99938C16.3537 8.00712 16.3328 8.02374 16.3046 8.05022C16.2482 8.1031 16.1624 8.19523 16.0729 8.33502C15.8976 8.60899 15.6906 9.09296 15.6906 9.87657C15.6906 10.6602 15.8976 11.1442 16.0729 11.4181C16.1624 11.5579 16.2482 11.65 16.3046 11.7029C16.3328 11.7294 16.3537 11.746 16.3639 11.7538L16.3694 11.7578C16.6536 11.9435 16.7381 12.3233 16.5574 12.6125C16.3744 12.9053 15.9887 12.9943 15.6959 12.8113L16.0273 12.2811C15.6959 12.8113 15.6956 12.8111 15.6952 12.8108L15.6945 12.8104L15.6929 12.8094L15.6896 12.8073L15.6818 12.8023L15.6623 12.7891C15.6474 12.7789 15.6292 12.7659 15.608 12.7498C15.5656 12.7176 15.5113 12.6732 15.4494 12.6151C15.3254 12.4989 15.1708 12.3281 15.0198 12.0921C14.7142 11.6147 14.4402 10.8964 14.4402 9.87657C14.4402 8.85678 14.7142 8.13847 15.0198 7.66101C15.1708 7.42509 15.3254 7.25423 15.4494 7.13803C15.5113 7.07998 15.5656 7.03555 15.608 7.00337C15.6292 6.98727 15.6474 6.97422 15.6623 6.96404L15.6818 6.95088L15.6896 6.94586L15.6929 6.94374L15.6945 6.94277L15.6952 6.94231C15.6956 6.94209 15.6959 6.94187 16.0273 7.47202L15.6959 6.94187C15.9887 6.75887 16.3744 6.84788 16.5574 7.14067C16.7381 7.42983 16.6536 7.80961 16.3694 7.99527L16.3706 7.99439L16.3672 7.99669ZM16.36 8.00133L16.3671 7.99673L16.3635 7.99907L16.3612 8.00053L16.36 8.00133ZM27.6296 15.1664H12V21.6787C12 25.2753 14.9157 28.191 18.5123 28.191H21.1173C24.4498 28.191 27.1977 25.6878 27.5833 22.4591C27.5987 22.46 27.6142 22.4604 27.6299 22.4604H30.2348C32.1051 22.4604 33.6212 20.9443 33.6212 19.074C33.6212 17.2037 32.1051 15.6876 30.2348 15.6876H27.6299H27.6296V15.1664ZM27.6296 17.2506V20.8975H27.6299H30.2348C31.2419 20.8975 32.0583 20.0811 32.0583 19.074C32.0583 18.0669 31.2419 17.2506 30.2348 17.2506H27.6299H27.6296Z" fill="url(#paint0_linear_99_4082)"/>
</g>
<defs>
<linearGradient id="paint0_linear_99_4082" x1="6.40934" y1="33.9217" x2="33.3392" y2="6.50943" gradientUnits="userSpaceOnUse">
<stop stop-color="#36E2F7"/>
<stop offset="0.269436" stop-color="#A83BCF"/>
<stop offset="1" stop-color="#FA232E"/>
</linearGradient>
<clipPath id="clip0_99_4082">
<rect width="33" height="40" fill="white" transform="translate(0.5)"/>
</clipPath>
</defs>
</svg>
