<svg width="114" height="118" viewBox="0 0 114 118" fill="none" xmlns="http://www.w3.org/2000/svg">
<g id="&#208;&#161;&#208;&#187;&#208;&#190;&#208;&#185;_x0020_1" clip-path="url(#clip0_54_1309)">
<g id="_1589474057568">
<path id="Vector" fill-rule="evenodd" clip-rule="evenodd" d="M14.4015 0H13.7642C13.5023 0.148698 12.3339 0.148698 12.0719 0.552308C13.5377 0.885109 15.7965 3.23596 15.7965 5.14072V5.25401C15.7965 6.57813 15.1946 7.49157 14.6706 8.29879C14.7839 8.41208 14.968 8.51829 15.1946 8.51829C15.6053 8.51829 15.8319 7.64026 15.9097 7.30746C16.0584 6.83304 16.285 6.35155 16.5116 5.94794C16.8515 5.21152 17.4888 4.07858 18.0907 3.63249C18.8412 3.08018 19.783 2.71198 20.9088 2.52787C21.2487 2.49247 24.3714 2.08886 24.4068 2.05345C24.2156 1.83395 21.8152 1.28164 21.2487 1.28164H21.0221C20.2716 1.28164 19.4431 1.57195 18.8766 1.75606C18.3527 1.94016 17.4463 2.59868 17.1843 2.67657C17.1843 2.27296 16.3912 1.24623 16.1717 1.02673C15.9097 0.771815 15.7186 0.552308 15.4212 0.368206C15.0459 0.113294 14.6281 0.148698 14.4015 0ZM17.6375 27.318C17.6375 26.8011 17.8287 26.1072 18.0128 25.739C18.1261 25.5195 18.6146 24.599 18.65 24.4927C18.4235 24.4573 18.4589 24.3795 18.2394 24.3795H18.0553C17.6446 24.3795 17.5667 25.3708 17.418 25.7036C17.2268 26.178 17.0427 26.6595 16.8515 27.0985C16.5541 27.8703 15.8743 28.8971 15.2725 29.414C14.3307 30.2566 10.8328 30.9222 9.10503 31.0638C9.21832 31.2479 11.4771 31.7223 11.8878 31.7223H12.7163C13.2827 31.7223 14.3307 31.3541 14.706 31.17C15.0813 31.0213 16.1717 30.3274 16.285 30.292C16.3983 30.731 17.1489 31.6161 17.4534 31.9418C17.9774 32.4162 18.3951 32.8199 19.3723 32.8199C19.9742 32.8199 21.362 32.4871 21.5532 32.2321C20.8026 32.2321 19.4856 31.0213 19.0324 30.5823C18.4305 29.9946 17.6375 28.9679 17.6375 27.7924V27.318ZM24.5201 29.5202C24.5201 28.4934 26.5098 26.2559 26.5098 24.4927V24.3086C26.5098 22.9137 24.5555 20.7824 23.5004 20.5275C23.5004 20.8957 23.1252 22.2552 23.0119 22.5455C22.672 23.2394 22.5233 23.466 21.9993 23.9758C21.4328 24.5282 19.7405 25.8452 19.7405 26.6949V27.318C19.7405 28.3093 20.6823 29.3715 21.093 30.0371C21.5815 30.731 22.7074 31.3612 23.8757 31.3612H24.7113L24.5201 30.0017V29.5202ZM2.70392 20.0106C2.17993 19.4582 0.636302 17.4402 0.29642 17.2207C0.331825 18.0279 1.27358 20.308 1.72676 20.747C2.44193 21.4834 3.45449 22.5809 4.58743 22.8429C4.43873 23.466 3.64567 24.3511 3.64567 25.3779V25.9302C3.64567 26.7374 4.92731 28.0615 5.52919 28.3518L5.4513 27.4667V27.1693C5.4513 25.9231 6.13106 24.1245 6.69045 23.4589C7.44102 22.6517 8.68726 21.9932 10.2238 21.9932H10.9744C10.9744 21.7029 10.7478 21.2568 10.4858 21.2993L7.10114 21.887L7.06574 21.8516H6.16647C4.50954 21.8445 3.57487 20.8178 2.70392 20.0106ZM8.42527 30.3699C9.74231 28.4226 11.2435 29.0812 13.5377 28.3164C14.6281 27.9482 15.1946 27.8774 15.7965 26.9569C16.2496 26.2984 16.5895 25.3779 16.5895 24.2732V22.9491C15.9098 23.1332 14.6352 24.0537 13.5801 23.905V23.9758L10.3088 23.4589L10.0468 23.4943C8.50315 23.4943 7.2286 25.916 7.2286 27.4596V28.0473C7.22152 28.8971 7.90128 29.9946 8.42527 30.3699ZM33.5128 20.4921C32.9109 20.7894 32.6489 21.1506 31.8205 21.3701C31.2965 21.5542 30.3193 21.8445 29.675 21.8445H29.4484C28.2092 21.8445 27.4162 21.4763 26.7435 20.8886C26.2903 20.485 25.4264 19.4936 25.2777 18.7926C25.0512 18.8635 24.7113 19.09 24.7113 19.2671V19.3379C24.7113 19.8548 27.7561 22.1631 27.7561 24.8822C27.7561 25.654 27.1896 27.1198 26.963 27.7429C26.8143 28.1819 26.6231 28.5855 26.439 29.067C26.2903 29.3998 25.9504 29.945 25.8725 30.2778C26.1345 30.207 27.7915 28.4439 27.9756 28.1465C28.4995 27.3039 28.9881 26.3479 28.9881 25.0238V23.813H30.1636C31.1053 23.813 32.1958 23.4094 32.571 22.8925C32.9817 22.3614 33.5128 21.3701 33.5128 20.4921ZM58.8269 9.99112H61.8009V23.5368C61.8009 23.6855 61.8363 23.7209 61.9921 23.7209H64.0951V9.99112H67.4019V8.74488H58.8269V9.99112ZM79.6589 10.0619H82.7815C83.61 10.0619 83.8366 11.0532 84.134 11.4923L84.3606 12.958L84.3252 19.7486C84.3252 20.924 83.8366 22.4251 82.6682 22.4251H79.6589V10.0619ZM83.872 23.7209C85.5997 23.7209 86.5061 21.5542 86.5061 19.8265V12.6677C86.5061 10.9045 85.6068 8.81569 83.8366 8.81569H77.2939V23.7209H83.872ZM42.987 15.1318C42.987 14.0697 43.3623 13.1846 44.5307 13.1846H48.1065V11.9384H42.9941C42.2435 11.9384 41.3797 12.5261 41.1106 13.0005C40.8061 13.5882 40.6999 14.5441 40.6999 15.4576V20.7824C40.6999 22.5101 41.5284 23.7209 43.334 23.7209H48.1136V22.4747H45.0688C43.7163 22.4747 43.0012 22.0357 43.0012 20.7116V15.1318H42.987ZM68.9455 23.5368C68.9455 23.6855 68.9809 23.7209 69.1367 23.7209H75.7927V22.6163C75.7927 22.4676 75.7573 22.4322 75.6015 22.4322H71.3105V8.7378H68.9384V23.5368H68.9455ZM87.8231 20.6408C87.8231 22.5101 88.5737 23.728 90.4926 23.728H97.1132V11.8959H94.8544V22.4676H91.5831C90.6059 22.4676 90.1173 21.6958 90.1173 20.7824V11.903H87.8231V20.6408ZM24.0315 13.3333C24.4068 13.8502 25.1574 14.3246 25.5751 14.9123C25.9858 15.5 26.2903 16.3427 26.4036 17.2278C26.6302 19.175 27.3454 20.4212 29.5617 20.4212H29.937C31.254 20.4212 31.7426 20.308 32.6065 19.8335C33.0171 19.5786 34.0014 18.6581 34.0368 18.035C33.3995 17.8863 32.4578 17.3765 32.0471 16.9729C31.6718 16.5692 31.254 15.6133 30.8787 15.061C30.0503 13.8502 29.2643 12.4907 27.2675 12.4907H27.1896C25.915 12.4836 24.9025 12.8872 24.0315 13.3333ZM-0.000976562 15.5C1.91794 15.939 2.40652 16.5268 3.30579 17.9571C3.82978 18.7643 5.338 20.3434 6.65505 20.3434H7.25692C7.8942 20.3434 8.53856 20.1238 9.06254 19.9751C9.55112 19.791 10.1884 19.3166 10.4929 19.2387C10.415 19.0546 9.10503 18.1341 8.83596 17.8084C8.23408 17.072 8.12079 16.7817 7.78091 15.7549C7.21444 14.1405 7.03033 12.6677 4.73613 12.6677C3.75897 12.6677 2.17993 12.9651 1.61346 13.3687C0.523008 14.1405 0.565493 14.3246 -0.000976562 15.5ZM49.9829 15.2026V20.3434C49.9829 22.326 50.5848 23.7209 52.5745 23.7209H57.3541V22.4747H54.458C52.7657 22.4747 52.2771 22.0003 52.2771 20.3434V15.3867C52.2771 14.2467 52.5391 13.1846 53.7075 13.1846H57.3541V11.9384H52.3904C50.5848 11.9384 49.9829 13.4041 49.9829 15.2026ZM11.9232 17.5889C11.9232 18.7997 12.6738 19.4582 13.9129 19.4582C15.0034 19.4582 15.1167 18.9413 15.6832 18.5802V19.352H16.547V13.7723H15.5699V17.0366C15.5699 18.0279 15.0813 18.651 14.0687 18.651H13.8067C13.396 18.651 12.9075 18.0633 12.9075 17.6951V13.7652H11.9303L11.9232 17.5889ZM28.8465 4.95661V5.80632C28.8465 7.01715 28.0959 8.56078 27.5649 9.33259C27.0409 10.1044 25.5327 10.7629 24.2156 10.7629H23.2385V11.0178C23.2385 11.2373 23.4296 11.4923 23.6137 11.4923L23.6916 11.4569L27.3029 11.0178C27.9826 10.9045 29.2572 11.2373 29.6325 11.4569C30.3477 11.8959 30.6451 12.1508 31.2115 12.7031C31.7355 13.2554 32.04 13.6236 32.5286 14.2113C32.6773 14.3954 33.7323 15.6771 33.8102 15.7549C33.7748 14.7636 32.9109 12.781 32.4224 12.1933C31.8205 11.4215 30.6167 10.2814 29.5617 10.0619C29.5617 10.0619 30.1281 9.0352 30.2414 8.85109C30.3901 8.5537 30.6521 7.71107 30.6521 7.34287C30.6521 6.31614 29.5263 4.73711 28.7686 4.553C28.7757 4.73711 28.8465 4.77251 28.8465 4.95661ZM17.7508 14.5441H21.1354C20.7601 15.0964 17.5596 18.4386 17.5596 18.6581V19.352H22.6012V18.5094H19.9317L18.7633 18.5802C18.8766 18.2474 22.41 14.5795 22.41 14.3954V13.7723H17.7437V14.5441H17.7508ZM106.665 23.6855V22.4747H101.624L106.587 13.0005V11.8959H98.841V13.1421H104.109C103.96 13.836 101.964 17.1782 101.475 18.1341C101.178 18.7572 98.841 22.8358 98.841 23.1261V23.7139H106.474C106.701 23.7209 106.517 23.7563 106.665 23.6855ZM5.07601 7.56946V8.44748L5.1539 9.10601C4.96272 9.10601 4.92731 9.0706 4.74321 9.0706H3.98556C1.99583 9.0706 0.678787 10.4655 0.678787 12.4128C1.24526 12.1154 1.65595 11.7188 2.40652 11.5347C3.12169 11.3152 3.79437 11.0603 4.66532 11.0603H5.34508C6.74002 11.0603 8.65185 12.9297 8.92093 14.0343C9.18292 13.9989 9.44491 13.744 9.44491 13.482C9.44491 13.0784 6.36473 10.4372 6.36473 8.30587V7.75356C6.36473 7.23665 6.9312 5.516 7.1153 5.06991C7.264 4.73711 8.12787 2.71906 8.12787 2.61284C7.71718 2.83235 6.47094 4.19188 6.13814 4.63089C5.67789 5.25401 5.07601 6.53565 5.07601 7.56946ZM8.91385 1.84103C8.91385 2.42874 9.25373 3.01645 9.25373 3.75286V3.78827C9.25373 4.77959 7.82339 6.91093 7.82339 8.45457C7.82339 9.5167 8.42527 10.508 8.94925 11.0249C9.40243 11.4639 10.5637 12.349 11.2789 12.4907C11.2789 8.37668 14.2882 7.90226 14.2882 6.02583V5.3319C14.2882 4.70878 13.1978 3.42006 12.8225 3.05186C12.256 2.49955 11.47 1.72773 10.3442 1.72773L9.8202 1.69233L8.91385 1.84103ZM22.3392 3.89448H21.7019C20.1583 3.89448 19.0678 4.3689 18.3527 5.21861C17.7862 5.91961 17.1489 7.38535 17.1489 8.63159C17.8287 8.63159 18.6146 8.22798 19.6697 8.22798H19.8184C21.1354 8.22798 22.5233 9.368 23.6916 9.368H24.0315C25.5751 9.368 27.3808 6.64894 27.3808 5.25401V4.815C27.3808 4.34058 26.8568 3.08726 26.5877 2.90316C24.6334 4.19188 25.2777 3.89448 22.3392 3.89448Z" fill="url(#paint0_linear_54_1309)"/>
<path id="Vector_2" fill-rule="evenodd" clip-rule="evenodd" d="M11.9788 39.6811C11.9788 38.9518 12.5736 38.357 13.3029 38.357C14.0323 38.357 14.627 38.9518 14.627 39.6811V48.0295C14.627 48.7588 14.0323 49.3536 13.3029 49.3536C12.5736 49.3536 11.9788 48.7588 11.9788 48.0295V39.6811ZM11.9788 53.3259C11.9788 52.5966 12.5736 52.0018 13.3029 52.0018C14.0323 52.0018 14.627 52.5966 14.627 53.3259V84.8429H42.8443V48.9995C42.8443 45.9477 44.0835 43.1791 46.0874 41.1752C48.0913 39.1713 50.8599 37.9321 53.9117 37.9321H96.7156C99.0877 37.9321 101.311 38.6685 103.138 39.9714C104.965 41.2672 106.388 43.1295 107.167 45.3812C107.946 47.6188 107.974 49.9625 107.344 52.108C106.714 54.2677 105.425 56.222 103.563 57.6949L69.1073 84.8429H102.501C103.23 84.8429 103.825 85.4377 103.825 86.1671C103.825 86.8964 103.23 87.4912 102.501 87.4912H67.4079C66.9547 87.4912 66.5582 87.3708 66.2112 87.123C65.8643 86.8751 65.6235 86.5423 65.4748 86.1033C65.3261 85.6714 65.312 85.2536 65.4252 84.85C65.5456 84.4393 65.7793 84.0994 66.1404 83.8162L101.934 55.6202C103.357 54.5014 104.342 53.0073 104.816 51.3787C105.298 49.7359 105.276 47.9516 104.682 46.238C104.087 44.5244 103.003 43.1082 101.616 42.124C100.235 41.1398 98.5354 40.5804 96.7156 40.5804H53.9117C51.5892 40.5804 49.4862 41.5221 47.9567 43.0516C46.4343 44.574 45.4855 46.6841 45.4855 49.0066V85.4377C45.4855 86.0042 45.2518 86.514 44.8836 86.8893C44.5154 87.2575 43.9985 87.4912 43.432 87.4912H14.0393C13.4729 87.4912 12.963 87.2575 12.5878 86.8893C12.2195 86.5211 11.9859 86.0042 11.9859 85.4377L11.9788 53.3259ZM111.833 93.8498C112.563 93.8498 113.157 94.4446 113.157 95.1739C113.157 95.9033 112.563 96.4981 111.833 96.4981H106.622C105.892 96.4981 105.298 95.9033 105.298 95.1739C105.298 94.4446 105.892 93.8498 106.622 93.8498H111.833ZM101.042 93.8498C101.771 93.8498 102.366 94.4446 102.366 95.1739C102.366 95.9033 101.771 96.4981 101.042 96.4981H67.4079C65.0358 96.4981 62.8124 95.7616 60.9855 94.4588C59.1587 93.163 57.7354 91.3007 56.9565 89.049C56.1776 86.8114 56.1493 84.4676 56.7795 82.3221C57.4097 80.1625 58.6984 78.2081 60.5607 76.7353L95.0162 49.5872H54.4995V85.4306C54.4995 88.4825 53.2603 91.2511 51.2564 93.255C49.2525 95.2589 46.4839 96.4981 43.432 96.4981H14.0323C10.9804 96.4981 8.21177 95.2589 6.20788 93.255C4.204 91.2511 2.96484 88.4825 2.96484 85.4306V48.2136C2.96484 47.4842 3.55964 46.8894 4.28897 46.8894C5.0183 46.8894 5.61309 47.4842 5.61309 48.2136V85.4306C5.61309 87.7532 6.55485 89.8562 8.08432 91.3857C9.61379 92.9151 11.7168 93.8569 14.0393 93.8569H43.4391C45.7617 93.8569 47.8647 92.9151 49.3941 91.3857C50.9165 89.8633 51.8654 87.7532 51.8654 85.4306V48.9995C51.8654 48.4331 52.099 47.9232 52.4672 47.548C52.8354 47.1798 53.3524 46.9461 53.9188 46.9461H96.7227C97.1759 46.9461 97.5724 47.0665 97.9194 47.3143C98.2593 47.5621 98.5071 47.8949 98.6558 48.3339C98.8045 48.7659 98.8186 49.1766 98.7054 49.5802C98.585 49.9909 98.3442 50.3378 97.9902 50.614L62.1893 78.81C60.766 79.9288 59.7818 81.4229 59.3074 83.0515C58.8259 84.6942 58.8471 86.4786 59.4419 88.1922C60.0367 89.9058 61.1201 91.3219 62.5079 92.3062C63.8887 93.2904 65.5881 93.8498 67.4079 93.8498H101.042Z" fill="url(#paint1_linear_54_1309)"/>
<path id="Vector_3" fill-rule="evenodd" clip-rule="evenodd" d="M7.47583 43.703C7.47583 42.9737 8.07062 42.3789 8.79995 42.3789C9.52928 42.3789 10.1241 42.9737 10.1241 43.703V85.4235C10.1241 86.4998 10.5631 87.477 11.2712 88.1922C11.9793 88.9003 12.9635 89.3393 14.0398 89.3393H43.4396C44.5159 89.3393 45.5001 88.9003 46.2082 88.1922C46.9163 87.4841 47.3553 86.4998 47.3553 85.4235V48.9995C47.3553 47.1939 48.0917 45.5511 49.2813 44.3616C50.4709 43.172 52.1066 42.4356 53.9193 42.4356H96.7232C98.1394 42.4356 99.4493 42.8675 100.533 43.6393C101.609 44.404 102.452 45.5087 102.912 46.854C103.372 48.1923 103.4 49.5731 103.025 50.8406C102.65 52.1151 101.885 53.2764 100.773 54.1473L64.9796 82.3504C64.3069 82.8815 63.8467 83.5684 63.6272 84.3189C63.4077 85.0766 63.4218 85.905 63.698 86.7193C63.9741 87.5266 64.4769 88.1851 65.1212 88.6383C65.7585 89.0914 66.5445 89.3464 67.4084 89.3464H106.842C107.571 89.3464 108.166 89.9411 108.166 90.6705C108.166 91.3998 107.571 91.9946 106.842 91.9946H67.4084C65.9922 91.9946 64.6822 91.5627 63.5989 90.7908C62.5226 90.0261 61.6799 88.9215 61.2197 87.5761C60.7594 86.2379 60.7311 84.8571 61.1064 83.5896C61.4817 82.315 62.2464 81.1538 63.3581 80.2828L99.1519 52.0868C99.8246 51.5557 100.285 50.8689 100.504 50.1183C100.724 49.3606 100.71 48.5322 100.434 47.7179C100.157 46.9107 99.6547 46.2521 99.0103 45.799C98.373 45.3458 97.5871 45.0909 96.7232 45.0909H53.9122C52.8359 45.0909 51.8588 45.5299 51.1436 46.238C50.4355 46.9461 49.9965 47.9303 49.9965 49.0066V85.4377C49.9965 87.2433 49.2601 88.8861 48.0705 90.0757C46.8809 91.2653 45.2452 92.0017 43.4325 92.0017H14.0327C12.2271 92.0017 10.5843 91.2653 9.39475 90.0757C8.20516 88.8861 7.46875 87.2504 7.46875 85.4377L7.47583 43.703Z" fill="url(#paint2_linear_54_1309)"/>
<path id="Vector_4" fill-rule="evenodd" clip-rule="evenodd" d="M12.6532 103.933H13.1488C13.6162 103.933 13.9985 104.315 13.9985 104.783V113.258C13.9985 113.726 13.6162 114.108 13.1488 114.108H12.6532C12.1858 114.108 11.8035 113.726 11.8035 113.258V112.642C10.975 113.797 9.78541 114.37 8.24178 114.37C6.84685 114.37 5.65018 113.853 4.65886 112.812C3.66754 111.771 3.17188 110.511 3.17188 109.017C3.17188 107.509 3.66754 106.241 4.65886 105.207C5.65018 104.174 6.84685 103.657 8.24178 103.657C9.79249 103.657 10.975 104.23 11.8035 105.37V104.775C11.8035 104.322 12.1858 103.933 12.6532 103.933ZM6.28746 111.361C6.89642 111.977 7.66823 112.288 8.58874 112.288C9.50926 112.288 10.2811 111.977 10.89 111.361C11.499 110.745 11.8035 109.966 11.8035 109.031C11.8035 108.096 11.499 107.318 10.89 106.701C10.2811 106.085 9.50926 105.774 8.58874 105.774C7.66823 105.774 6.89642 106.085 6.28746 106.701C5.67851 107.318 5.37403 108.096 5.37403 109.031C5.36695 109.966 5.67142 110.738 6.28746 111.361ZM21.922 103.671C23.0904 103.671 24.0321 104.046 24.7544 104.79C25.4766 105.533 25.8307 106.56 25.8307 107.863V113.258C25.8307 113.726 25.4483 114.108 24.981 114.108H24.4853C24.018 114.108 23.6356 113.726 23.6356 113.258V108.082C23.6356 107.325 23.4303 106.737 23.0267 106.333C22.616 105.923 22.0637 105.724 21.3556 105.724C20.5837 105.724 19.9606 105.965 19.4791 106.447C19.0047 106.928 18.764 107.664 18.764 108.656V113.258C18.764 113.726 18.3816 114.108 17.9143 114.108H17.4186C16.9513 114.108 16.5689 113.726 16.5689 113.258V104.783C16.5689 104.315 16.9513 103.933 17.4186 103.933H17.9143C18.3816 103.933 18.764 104.315 18.764 104.783V105.236C19.4296 104.195 20.4775 103.671 21.922 103.671ZM33.5418 103.671C34.7101 103.671 35.6519 104.046 36.3741 104.79C37.0964 105.533 37.4504 106.56 37.4504 107.863V113.258C37.4504 113.726 37.068 114.108 36.6007 114.108H36.105C35.6377 114.108 35.2553 113.726 35.2553 113.258V108.082C35.2553 107.325 35.05 106.737 34.6464 106.333C34.2357 105.923 33.6834 105.724 32.9753 105.724C32.2035 105.724 31.5803 105.965 31.1059 106.447C30.6315 106.928 30.3908 107.664 30.3908 108.656V113.258C30.3908 113.726 30.0084 114.108 29.5411 114.108H29.0454C28.5781 114.108 28.1957 113.726 28.1957 113.258V104.783C28.1957 104.315 28.5781 103.933 29.0454 103.933H29.5411C30.0084 103.933 30.3908 104.315 30.3908 104.783V105.236C31.0564 104.195 32.1043 103.671 33.5418 103.671ZM41.9043 101.993C41.6281 102.269 41.2953 102.41 40.92 102.41C40.5447 102.41 40.2119 102.269 39.9358 101.993C39.6596 101.717 39.518 101.384 39.518 101.008C39.518 100.633 39.6525 100.3 39.9287 100.024C40.1978 99.7481 40.5306 99.6064 40.9271 99.6064C41.3236 99.6064 41.6493 99.7481 41.9255 100.024C42.1946 100.3 42.3362 100.633 42.3362 101.008C42.3362 101.384 42.1804 101.717 41.9043 101.993ZM39.8154 113.265V104.79C39.8154 104.322 40.1978 103.94 40.6651 103.94H41.1608C41.6281 103.94 42.0105 104.322 42.0105 104.79V113.265C42.0105 113.733 41.6281 114.115 41.1608 114.115H40.6651C40.1978 114.115 39.8154 113.733 39.8154 113.265ZM52.0582 103.933H52.6176C52.9079 103.933 53.1558 104.067 53.3186 104.301C53.4815 104.542 53.5169 104.818 53.4107 105.094L50.1039 113.57C49.9765 113.903 49.6649 114.108 49.3109 114.108H47.9301C47.576 114.108 47.2645 113.903 47.137 113.57L43.8303 105.101C43.724 104.832 43.7595 104.549 43.9223 104.308C44.0852 104.067 44.333 103.94 44.6233 103.94H45.1827C45.5438 103.94 45.8554 104.159 45.9828 104.499L48.6311 111.701L51.2581 104.499C51.3785 104.152 51.69 103.933 52.0582 103.933ZM57.291 111.403C57.4114 111.531 57.5459 111.644 57.6875 111.743C58.2682 112.154 58.9833 112.366 59.826 112.366C60.7465 112.366 61.49 112.104 62.0494 111.573C62.3255 111.311 62.7291 111.262 63.0619 111.46L63.3947 111.658C63.6355 111.8 63.7771 112.019 63.8125 112.288C63.8479 112.564 63.7558 112.812 63.5576 113.003C62.6087 113.924 61.3554 114.384 59.8047 114.384C58.1478 114.384 56.8095 113.881 55.7969 112.869C54.7773 111.856 54.2675 110.582 54.2675 109.031C54.2675 107.509 54.7702 106.241 55.7757 105.215C56.7812 104.188 58.0699 103.678 59.6419 103.678C61.1359 103.678 62.3609 104.202 63.3168 105.243C64.2728 106.291 64.7542 107.558 64.7542 109.052C64.7542 109.081 64.7542 109.109 64.7542 109.137C64.7401 109.598 64.3648 109.966 63.9045 109.966H57.9141C57.5672 109.966 57.2698 110.164 57.1281 110.483C56.9865 110.794 57.0503 111.148 57.291 111.403ZM57.815 108.174H61.3129C61.6387 108.174 61.9148 108.004 62.0706 107.714C62.2193 107.424 62.1981 107.098 62.014 106.836C61.8723 106.631 61.7024 106.454 61.5112 106.305C60.9731 105.887 60.3499 105.675 59.6277 105.675C58.8134 105.675 58.1336 105.901 57.5955 106.347C57.4255 106.489 57.2768 106.638 57.1494 106.808C56.944 107.07 56.9157 107.402 57.0573 107.7C57.199 107.997 57.4822 108.174 57.815 108.174ZM68.8824 105.646C69.3002 104.698 69.9941 104.103 70.9642 103.869C71.2262 103.805 71.4811 103.862 71.6935 104.025C71.9059 104.195 72.0192 104.421 72.0192 104.698V105.314C72.0192 105.746 71.7077 106.1 71.2757 106.156C70.7376 106.227 70.249 106.418 69.8171 106.737C69.194 107.19 68.8824 107.941 68.8824 108.989V113.265C68.8824 113.733 68.5 114.115 68.0327 114.115H67.537C67.0697 114.115 66.6873 113.733 66.6873 113.265V104.79C66.6873 104.322 67.0697 103.94 67.537 103.94H68.0327C68.5 103.94 68.8824 104.322 68.8824 104.79V105.646ZM75.2552 106.73C75.2552 107.07 75.4393 107.332 75.8146 107.523C76.1899 107.714 76.643 107.898 77.167 108.061C77.691 108.224 78.2291 108.387 78.7885 108.564C79.3408 108.734 79.8011 109.052 80.1764 109.506C80.5446 109.966 80.7358 110.546 80.7358 111.247C80.7358 112.225 80.3605 112.989 79.6028 113.549C78.8523 114.108 77.9034 114.384 76.7634 114.384C75.7579 114.384 74.8941 114.172 74.1789 113.754C73.754 113.506 73.4 113.202 73.1097 112.841C72.9468 112.642 72.8902 112.402 72.9397 112.154C72.9893 111.899 73.1238 111.708 73.3504 111.573L73.754 111.339C74.1293 111.127 74.5967 111.219 74.8587 111.559C75.2764 112.097 75.9137 112.366 76.7705 112.366C77.9247 112.366 78.4982 111.984 78.4982 111.226C78.4982 110.9 78.3141 110.638 77.9388 110.433C77.5635 110.228 77.1175 110.044 76.5864 109.881C76.0624 109.718 75.5243 109.555 74.9649 109.378C74.4126 109.208 73.9523 108.904 73.577 108.465C73.2017 108.026 73.0176 107.466 73.0176 106.786C73.0176 105.852 73.3717 105.094 74.0868 104.528C74.802 103.954 75.6871 103.671 76.7422 103.671C77.5848 103.671 78.3354 103.855 78.9939 104.23C79.3338 104.421 79.6241 104.648 79.8861 104.917C80.0773 105.115 80.1552 105.363 80.1127 105.632C80.0702 105.901 79.9215 106.114 79.6878 106.248L79.3479 106.439C79.001 106.638 78.569 106.567 78.3 106.27C77.9318 105.866 77.4149 105.661 76.7422 105.661C76.3244 105.661 75.9704 105.753 75.68 105.93C75.3968 106.114 75.2552 106.383 75.2552 106.73ZM91.3146 103.933H91.8103C92.2776 103.933 92.66 104.315 92.66 104.783V113.258C92.66 113.726 92.2776 114.108 91.8103 114.108H91.3146C90.8473 114.108 90.4649 113.726 90.4649 113.258V112.642C89.6364 113.797 88.4469 114.37 86.9032 114.37C85.5083 114.37 84.3116 113.853 83.3203 112.812C82.329 111.771 81.8333 110.511 81.8333 109.017C81.8333 107.509 82.329 106.241 83.3203 105.207C84.3116 104.174 85.5083 103.657 86.9032 103.657C88.4539 103.657 89.6364 104.23 90.4649 105.37V104.775C90.4649 104.322 90.8473 103.933 91.3146 103.933ZM84.9489 111.361C85.5579 111.977 86.3297 112.288 87.2502 112.288C88.1707 112.288 88.9425 111.977 89.5515 111.361C90.1604 110.745 90.4649 109.966 90.4649 109.031C90.4649 108.096 90.1604 107.318 89.5515 106.701C88.9425 106.085 88.1707 105.774 87.2502 105.774C86.3297 105.774 85.5579 106.085 84.9489 106.701C84.3399 107.318 84.0355 108.096 84.0355 109.031C84.0355 109.966 84.3399 110.738 84.9489 111.361ZM97.4254 105.646C97.8432 104.698 98.5371 104.103 99.5072 103.869C99.7692 103.805 100.024 103.862 100.237 104.025C100.449 104.195 100.562 104.421 100.562 104.698V105.314C100.562 105.746 100.251 106.1 99.8187 106.156C99.2806 106.227 98.792 106.418 98.3601 106.737C97.737 107.19 97.4254 107.941 97.4254 108.989V113.265C97.4254 113.733 97.043 114.115 96.5757 114.115H96.08C95.6127 114.115 95.2303 113.733 95.2303 113.265V104.79C95.2303 104.322 95.6127 103.94 96.08 103.94H96.5757C97.043 103.94 97.4254 104.322 97.4254 104.79V105.646ZM109.859 103.933H110.369C110.66 103.933 110.907 104.06 111.07 104.301C111.233 104.535 111.269 104.811 111.169 105.087L107.686 114.441C106.85 116.7 105.512 117.939 103.671 118.158C103.423 118.187 103.189 118.116 103.005 117.953C102.814 117.783 102.722 117.571 102.722 117.316V116.94C102.722 116.523 103.019 116.169 103.437 116.098C103.812 116.034 104.131 115.9 104.393 115.694C104.79 115.376 105.122 114.894 105.391 114.243C105.483 114.023 105.476 113.804 105.384 113.584L101.731 105.13C101.61 104.86 101.639 104.57 101.801 104.322C101.964 104.074 102.219 103.94 102.517 103.94H103.055C103.409 103.94 103.706 104.145 103.841 104.471L106.659 111.332L109.059 104.513C109.18 104.159 109.491 103.94 109.859 103.933Z" fill="url(#paint3_linear_54_1309)"/>
</g>
</g>
<defs>
<linearGradient id="paint0_linear_54_1309" x1="95.3438" y1="4.9441" x2="28.1073" y2="66.6621" gradientUnits="userSpaceOnUse">
<stop stop-color="#36E2F7"/>
<stop offset="0.3294" stop-color="#A63CD2"/>
<stop offset="0.6588" stop-color="#D03080"/>
<stop offset="0.7686" stop-color="#FA232E"/>
<stop offset="1" stop-color="#FA232E"/>
</linearGradient>
<linearGradient id="paint1_linear_54_1309" x1="101.462" y1="46.7547" x2="1.65991" y2="99.7895" gradientUnits="userSpaceOnUse">
<stop stop-color="#36E2F7"/>
<stop offset="0.3294" stop-color="#A63CD2"/>
<stop offset="0.6588" stop-color="#D03080"/>
<stop offset="0.7686" stop-color="#FA232E"/>
<stop offset="1" stop-color="#FA232E"/>
</linearGradient>
<linearGradient id="paint2_linear_54_1309" x1="97.4779" y1="49.8543" x2="9.44026" y2="100.311" gradientUnits="userSpaceOnUse">
<stop stop-color="#36E2F7"/>
<stop offset="0.3294" stop-color="#A63CD2"/>
<stop offset="0.6588" stop-color="#D03080"/>
<stop offset="0.7686" stop-color="#FA232E"/>
<stop offset="1" stop-color="#FA232E"/>
</linearGradient>
<linearGradient id="paint3_linear_54_1309" x1="99.7559" y1="102.402" x2="65.8758" y2="158.116" gradientUnits="userSpaceOnUse">
<stop stop-color="#36E2F7"/>
<stop offset="0.3294" stop-color="#A63CD2"/>
<stop offset="0.6588" stop-color="#D03080"/>
<stop offset="0.7686" stop-color="#FA232E"/>
<stop offset="1" stop-color="#FA232E"/>
</linearGradient>
<clipPath id="clip0_54_1309">
<rect width="113.324" height="117.926" fill="white"/>
</clipPath>
</defs>
</svg>
