<svg width="118" height="118" viewBox="0 0 118 118" fill="none" xmlns="http://www.w3.org/2000/svg">
<g id="Group">
<path id="Vector" fill-rule="evenodd" clip-rule="evenodd" d="M62.9477 57.8134V60.1366C62.6256 59.7456 62.2959 59.3545 61.9585 58.9788C62.2959 58.5954 62.6256 58.2044 62.9477 57.8134ZM68.2229 49.011V68.9313C67.5022 67.1907 66.6357 65.5039 65.639 63.886V54.0486C66.6357 52.4384 67.4945 50.7592 68.2229 49.011ZM82.5535 23.7619C88.9789 23.7619 94.2004 28.9911 94.2004 35.4089V82.4721C94.2004 88.8975 88.9712 94.119 82.5535 94.119C76.1358 94.119 70.9142 88.9051 70.9065 82.4951V35.4319V35.4089C70.9065 28.9911 76.1281 23.7619 82.5535 23.7619ZM62.9477 64.7064C63.9828 66.2936 64.8799 67.9805 65.6313 69.744C67.2951 73.6698 68.2152 77.9789 68.2152 82.5028C68.2152 85.1251 68.936 87.5863 70.1705 89.6949C72.6547 93.9504 77.2782 96.8103 82.5458 96.8103C90.451 96.8103 96.8764 90.3773 96.8764 82.4798V35.4165C96.8764 27.5113 90.451 21.0859 82.5458 21.0859C77.2706 21.0859 72.6471 23.9536 70.1628 28.2091C68.9283 30.3253 68.2152 32.7942 68.2152 35.4165V35.4395C68.2152 39.9634 67.2951 44.2725 65.6313 48.1983C64.8799 49.9618 63.9828 51.6487 62.9477 53.2358C62.1579 54.4473 61.2991 55.6051 60.3637 56.6939C60.2717 56.8012 60.1797 56.9086 60.08 57.0159C59.4896 57.6907 58.8609 58.3424 58.2168 58.9711C58.8685 59.5922 59.4896 60.2439 60.08 60.9264C60.172 61.0337 60.2717 61.141 60.3637 61.2484C61.2991 62.3372 62.1656 63.495 62.9477 64.7064Z" fill="url(#paint0_linear_54_1315)"/>
<path id="Vector_2" fill-rule="evenodd" clip-rule="evenodd" d="M17.1346 45.3457C17.9167 45.3994 18.5684 44.7783 18.5684 44.0039V42.3247C18.5684 41.581 17.9703 40.9829 17.2266 40.9829C16.4828 40.9829 15.8848 41.581 15.8848 42.3247V43.9579C15.8848 44.671 16.4215 45.2997 17.1346 45.3457Z" fill="url(#paint1_linear_54_1315)"/>
<path id="Vector_3" fill-rule="evenodd" clip-rule="evenodd" d="M60.1114 65.0973C60.0347 64.99 59.958 64.8826 59.8813 64.7753C59.8737 64.7676 59.866 64.7523 59.8507 64.737C59.7663 64.6219 59.682 64.5069 59.5977 64.3996C59.3216 64.0316 59.0303 63.6712 58.7389 63.3185C58.6469 63.2111 58.5549 63.0961 58.4629 62.9888C58.3632 62.8738 58.2712 62.7587 58.1715 62.6514C58.0718 62.5441 57.9798 62.429 57.8801 62.3217C57.8111 62.2527 57.7498 62.176 57.6884 62.107C57.4047 61.8003 57.1134 61.4936 56.8143 61.1946C56.6457 61.0259 56.477 60.8649 56.3083 60.6962C55.9172 60.3205 55.5109 59.9601 55.1045 59.6074C54.8515 59.3927 54.6061 59.1857 54.3454 58.9787C54.5984 58.7716 54.8515 58.5646 55.1045 58.3499C55.5109 57.9972 55.9172 57.6368 56.3083 57.2611C56.477 57.1001 56.6533 56.9314 56.8143 56.7627C57.1134 56.4637 57.4047 56.157 57.6884 55.8503C57.8571 55.674 58.0181 55.4899 58.1792 55.3059C58.9689 54.4011 59.705 53.4657 60.3721 52.4919C61.3688 51.0428 62.2353 49.5093 62.956 47.9221C63.071 47.6691 63.186 47.4161 63.2934 47.1554C63.3394 47.048 63.3854 46.9407 63.4237 46.8333C63.5234 46.5879 63.6231 46.3426 63.7151 46.0972C63.7611 45.9746 63.8071 45.8519 63.8531 45.7292C63.8838 45.6372 63.9221 45.5452 63.9528 45.4532C63.9758 45.3918 63.9988 45.3228 64.0218 45.2615C64.0525 45.1695 64.0831 45.0698 64.1138 44.9778C64.1445 44.8704 64.1828 44.7631 64.2135 44.6557C64.2978 44.3874 64.3822 44.1113 64.4589 43.8353C64.4895 43.7126 64.5279 43.5976 64.5585 43.4749C64.5969 43.3369 64.6352 43.2066 64.6659 43.0686C64.7656 42.6852 64.8576 42.3018 64.9419 41.9108C64.9726 41.7804 64.9956 41.6501 65.0263 41.5197C65.0799 41.259 65.1259 40.9983 65.1796 40.7376C65.2026 40.6073 65.2256 40.4769 65.2486 40.3466C65.2716 40.2163 65.2946 40.0859 65.31 39.9479C65.3253 39.8175 65.3483 39.6872 65.3636 39.5492C65.379 39.4188 65.402 39.2885 65.4173 39.1505C65.4403 38.9971 65.4556 38.8361 65.471 38.6828C65.4863 38.5754 65.494 38.4604 65.5016 38.353C65.517 38.2227 65.5246 38.0847 65.54 37.9543C65.563 37.6783 65.5783 37.3946 65.5936 37.1109C65.6013 36.9882 65.609 36.8655 65.609 36.7429C65.6167 36.6049 65.6167 36.4745 65.6243 36.3365C65.6243 36.1985 65.632 36.0681 65.632 35.9301C65.632 35.7921 65.632 35.6617 65.632 35.5237V35.3934C65.632 32.7251 66.2531 30.1948 67.3572 27.9482C67.9016 26.8518 68.5533 25.8167 69.3124 24.8659C72.4177 20.9708 77.1946 18.4712 82.5542 18.4712C91.8856 18.4712 99.4764 26.062 99.4764 35.3934V82.4566C99.4764 91.788 91.8856 99.3788 82.5542 99.3788C77.2023 99.3788 72.4254 96.8869 69.3277 92.9994C68.5686 92.0487 67.9169 91.0212 67.3725 89.9247C66.2684 87.6782 65.6397 85.1555 65.6397 82.4873C65.6397 78.1168 64.7119 73.8843 62.956 70.0199C62.2353 68.425 61.3688 66.8992 60.3721 65.4424C60.2801 65.3427 60.1957 65.22 60.1114 65.0973ZM62.9484 82.5103C62.9484 85.3012 63.5464 87.9542 64.6045 90.3618C65.0876 91.4583 65.6627 92.4934 66.3297 93.4748C66.9125 94.3412 67.5719 95.154 68.2849 95.9131C71.858 99.7085 76.9339 102.085 82.5465 102.085C93.3577 102.085 102.152 93.2908 102.152 82.4796V35.4164C102.152 24.6052 93.3577 15.8105 82.5465 15.8105C76.9262 15.8105 71.8427 18.1875 68.2696 21.9982C67.5565 22.7573 66.8971 23.5701 66.3144 24.4365C65.6473 25.4179 65.0646 26.4684 64.5815 27.5725C63.5311 29.9724 62.9484 32.6254 62.9484 35.4164V35.4394C62.9484 39.5952 62.0206 43.5363 60.3644 47.071C59.613 48.6735 58.7159 50.184 57.6808 51.5948C57.1671 52.3003 56.615 52.9903 56.0323 53.6421C55.7256 53.9871 55.4112 54.3245 55.0892 54.6465C54.7748 54.9686 54.4451 55.2906 54.1154 55.5973C53.5633 56.1033 52.9959 56.5864 52.4055 57.0541C52.2905 57.1461 52.1755 57.2305 52.0682 57.3148C51.3474 57.8669 50.596 58.3806 49.8216 58.856C49.7602 58.8943 49.6989 58.9327 49.6299 58.971C49.6912 59.0093 49.7526 59.0477 49.8216 59.086C50.596 59.5614 51.3474 60.0751 52.0682 60.6272C52.1832 60.7115 52.2982 60.8035 52.4055 60.8879C52.9959 61.3479 53.5633 61.831 54.1154 62.3447C54.4451 62.6514 54.7748 62.9658 55.0892 63.2878C55.4112 63.6175 55.7256 63.9549 56.0323 64.2923C56.615 64.944 57.1671 65.6264 57.6808 66.3395C58.7159 67.7503 59.613 69.2685 60.3644 70.8633C62.0283 74.4057 62.956 78.3468 62.9484 82.5103Z" fill="url(#paint2_linear_54_1315)"/>
<path id="Vector_4" fill-rule="evenodd" clip-rule="evenodd" d="M13.293 74.6354V71.1084C13.293 70.3416 12.6413 69.7206 11.8592 69.7742C11.1461 69.8202 10.6094 70.4413 10.6094 71.162V74.6431C10.6094 75.3869 11.2074 75.9849 11.9512 75.9849C12.6949 75.9773 13.293 75.3792 13.293 74.6354Z" fill="url(#paint3_linear_54_1315)"/>
<path id="Vector_5" fill-rule="evenodd" clip-rule="evenodd" d="M24.3115 64.2461C24.3115 64.6142 24.4649 64.9515 24.7026 65.1969C24.9403 65.4422 25.2776 65.5879 25.6533 65.5879H35.4908C38.1667 65.5879 40.6893 66.209 42.9436 67.3208C44.04 67.8652 45.0752 68.5169 46.0259 69.276C46.4093 69.5827 46.785 69.9124 47.1454 70.2498C48.1728 71.2236 49.0699 72.32 49.829 73.5238C51.4699 76.1308 52.4206 79.2054 52.4206 82.5101C52.4206 85.2014 52.7733 87.8391 53.4558 90.3693C53.7701 91.5348 54.1535 92.6773 54.6059 93.7891C55.0046 94.7705 55.4493 95.729 55.9477 96.6644C56.3771 97.4695 56.8448 98.2592 57.3509 99.026C57.8722 99.8234 58.4396 100.598 59.0454 101.349C59.5898 102.024 60.1572 102.676 60.7629 103.304C60.9239 103.473 61.0849 103.634 61.2536 103.803C61.729 104.278 62.2197 104.738 62.7258 105.175C68.2234 109.998 75.1932 112.628 82.5693 112.628C90.6202 112.628 98.1881 109.492 103.885 103.795C109.582 98.0982 112.718 90.5304 112.718 82.4795V35.4163C112.718 27.3654 109.582 19.7975 103.885 14.1006C98.1881 8.40359 90.6202 5.26758 82.5693 5.26758C75.1778 5.26758 68.2004 7.91287 62.6951 12.7434C62.2044 13.1805 61.7213 13.6252 61.2536 14.1006C61.0849 14.2692 60.9086 14.4456 60.7476 14.622C60.1418 15.2584 59.5668 15.9101 59.03 16.5848C58.4473 17.3132 57.8876 18.0723 57.3815 18.8468C56.8525 19.6442 56.3617 20.4646 55.917 21.308C55.4263 22.2281 54.9893 23.1712 54.6059 24.1373C54.1535 25.2568 53.7701 26.4069 53.4558 27.5724C52.781 30.095 52.4283 32.725 52.4283 35.4163V35.5773C52.4053 38.8283 51.4545 41.857 49.8367 44.4333C49.0853 45.6371 48.1805 46.7335 47.1531 47.7073C46.7927 48.0523 46.4246 48.3744 46.0336 48.6811C45.0828 49.4401 44.0554 50.0919 42.9589 50.6363C40.7123 51.7481 38.1821 52.3691 35.5061 52.3691H28.6667C27.9536 52.3691 27.3325 52.9059 27.2789 53.6189C27.2252 54.401 27.8462 55.0451 28.613 55.0451H35.4984C38.2971 55.0451 40.9577 54.4547 43.3653 53.3966C44.4618 52.9135 45.5045 52.3385 46.486 51.6714C46.7083 51.518 46.9307 51.3647 47.1454 51.196C47.7665 50.736 48.3645 50.2376 48.9243 49.7085C49.2386 49.4095 49.5453 49.1104 49.829 48.7961C50.8181 47.738 51.6846 46.5802 52.4206 45.3227C54.0845 42.4857 55.0583 39.204 55.1043 35.6923C55.1043 35.6079 55.1043 35.5236 55.1043 35.4393V35.4086C55.1043 32.6789 55.503 30.0413 56.2467 27.557C56.6071 26.3456 57.0518 25.1724 57.5655 24.0377C58.0026 23.0869 58.4856 22.1668 59.0224 21.2773C59.5284 20.4339 60.0805 19.6288 60.6709 18.8468C61.2076 18.1337 61.7827 17.4513 62.3961 16.7919C63.0172 16.1248 63.6689 15.4807 64.3513 14.875C69.2048 10.5658 75.5842 7.94353 82.5693 7.94353C97.7127 7.94353 110.034 20.2652 110.034 35.4086V82.4718C110.034 97.6152 97.7127 109.937 82.5693 109.937C75.5995 109.937 69.2202 107.322 64.3743 103.028C63.6919 102.423 63.0402 101.779 62.4191 101.112C61.8134 100.46 61.2383 99.7774 60.7016 99.0643C60.0958 98.2669 59.5284 97.4388 59.0147 96.5724C58.4933 95.7136 58.0256 94.8242 57.6039 93.9117C57.0748 92.7693 56.6301 91.5808 56.2621 90.354C55.5107 87.8621 55.1119 85.2244 55.1119 82.4948C55.1119 78.8911 54.1305 75.5097 52.4283 72.6037C51.6922 71.3539 50.8258 70.1885 49.8367 69.138C49.5453 68.8236 49.2386 68.5169 48.9319 68.2256C48.3722 67.6965 47.7818 67.1981 47.1531 66.7381C46.9307 66.577 46.716 66.416 46.486 66.2627C45.5045 65.5956 44.4618 65.0205 43.373 64.5375C40.9654 63.4794 38.2971 62.889 35.5061 62.889H25.6533C24.9096 62.8966 24.3115 63.5024 24.3115 64.2461Z" fill="url(#paint4_linear_54_1315)"/>
<path id="Vector_6" fill-rule="evenodd" clip-rule="evenodd" d="M107.595 10.3742C100.909 3.68808 92.0068 0 82.5527 0C73.7811 0 65.5002 3.16669 59.0058 8.96333C52.5191 3.18202 44.2458 0.0230063 35.4895 0.0230063C26.0278 0.0230063 17.1335 3.71108 10.4474 10.3972C3.76132 17.0832 0.0732422 25.9776 0.0732422 35.4393V41.4966C0.0732422 42.2404 0.671309 42.8384 1.41506 42.8384C1.7831 42.8384 2.12047 42.6851 2.36583 42.4474C2.61119 42.202 2.75687 41.8723 2.75687 41.4966V35.7C2.75687 17.666 17.5092 2.67597 35.5432 2.69897C43.7781 2.71431 51.3076 5.78131 57.0582 10.8265C56.4602 11.4476 55.8851 12.084 55.3407 12.7357C49.8201 7.88987 42.8043 5.25992 35.3898 5.28292C27.546 5.31359 19.9858 8.41127 14.3885 13.9012C8.56118 19.6135 5.34849 27.2734 5.34849 35.4239V40.5228C5.34849 41.2666 5.94656 41.8647 6.69031 41.8647C7.05835 41.8647 7.39572 41.7113 7.64108 41.4736C7.88644 41.2282 8.03212 40.8985 8.03212 40.5228V35.4239C8.03212 20.2806 20.3538 7.95889 35.4972 7.95889C42.4746 7.95889 48.8463 10.5735 53.6922 14.8673C53.1708 15.5957 52.6877 16.3395 52.2277 17.0909C47.7039 12.9504 41.6619 10.4432 35.1138 10.5428C21.573 10.7499 10.6237 21.8294 10.6237 35.4163V40.6225C10.6237 41.3356 11.1605 41.9643 11.8736 42.0103C12.6556 42.064 13.3074 41.4429 13.3074 40.6762V35.6463C13.3074 23.3783 23.1755 13.2571 35.4435 13.2341C41.4472 13.2188 46.9064 15.6034 50.9089 19.4755C50.4948 20.3036 50.1038 21.147 49.7588 22.0134C46.2164 18.2487 41.2018 15.8718 35.6505 15.8258C24.7703 15.7414 15.899 24.5667 15.899 35.4239V35.8686C15.899 36.6124 16.4971 37.2105 17.2408 37.2105C17.6089 37.2105 17.9462 37.0571 18.1916 36.8194C18.4369 36.5741 18.5826 36.2444 18.5826 35.8686V35.4239C18.5826 26.0466 26.2425 18.4327 35.6352 18.5017C40.9258 18.5401 45.649 21.0397 48.7236 24.8964C48.3863 25.9852 48.1026 27.0893 47.8726 28.2165C45.4113 24.0147 40.8798 21.17 35.7119 21.0933C27.7146 20.9783 21.1666 27.4497 21.1666 35.4239V38.5369C21.1666 39.2807 21.7647 39.8788 22.5084 39.8788C22.8764 39.8788 23.2138 39.7254 23.4592 39.4877C23.7045 39.2424 23.8502 38.9127 23.8502 38.5369V35.5926C23.8502 29.0906 29.1791 23.685 35.6812 23.7846C42.0146 23.8843 47.1365 29.0522 47.1441 35.4086V35.4316C47.1441 35.4853 47.1441 35.5313 47.1441 35.5849C47.0675 41.9106 41.6695 47.0862 35.3438 47.0862H31.027C30.2833 47.0862 29.6852 47.6843 29.6852 48.428C29.6852 48.8037 29.8385 49.1335 30.0762 49.3788C30.3216 49.6242 30.6513 49.7699 31.027 49.7699H35.4972C38.1271 49.7699 40.5884 49.0568 42.7123 47.8146C44.4605 46.7949 45.971 45.4147 47.1441 43.7815C48.831 41.4276 49.8278 38.5523 49.8278 35.4393V35.4163C49.8278 32.863 50.1191 30.3787 50.6789 27.9941C50.9549 26.7903 51.3076 25.6095 51.714 24.467C52.059 23.5086 52.4424 22.5655 52.8718 21.6454C53.2781 20.779 53.7152 19.9355 54.1906 19.1151C54.643 18.3254 55.1337 17.551 55.6551 16.8072C56.1765 16.0558 56.7285 15.3274 57.3036 14.6296C57.848 13.9626 58.4231 13.3262 59.0211 12.7051C59.6422 12.0533 60.2939 11.4323 60.9763 10.8419C66.7423 5.76598 74.3025 2.6913 82.5681 2.6913C100.617 2.6913 115.301 17.3746 115.301 35.4239V82.4872C115.301 100.536 100.617 115.22 82.5681 115.22C74.3178 115.22 66.7653 112.145 60.9993 107.092C60.3246 106.502 59.6729 105.873 59.0441 105.229C58.4461 104.608 57.871 103.972 57.3266 103.304C56.7285 102.584 56.1688 101.84 55.6321 101.066C55.1414 100.352 54.6736 99.6164 54.2289 98.8573C53.7459 98.0215 53.2935 97.1628 52.8871 96.281C52.4577 95.3686 52.0744 94.4332 51.737 93.4824C51.3229 92.3323 50.9779 91.1515 50.6942 89.9476C50.1345 87.5554 49.8354 85.0635 49.8354 82.5025C49.8354 79.3972 48.8387 76.5142 47.1518 74.1602C45.9787 72.5194 44.4605 71.1392 42.72 70.1195C40.5961 68.8773 38.1348 68.1642 35.5048 68.1642H29.9612C29.2175 68.1642 28.6194 68.7623 28.6194 69.5061C28.6194 69.8741 28.7728 70.2115 29.0105 70.4568C29.2558 70.7022 29.5855 70.8479 29.9612 70.8479H35.5048C41.9302 70.8479 47.1518 76.0771 47.1518 82.4948C47.1518 88.9585 41.8689 94.2108 35.3898 94.1495C28.9798 94.0881 23.8579 88.7669 23.8579 82.3568V75.0343C23.8579 74.2982 23.2598 73.6925 22.5161 73.6925C22.148 73.6925 21.8107 73.8459 21.5653 74.0836C21.3199 74.3289 21.1742 74.6586 21.1742 75.0343V82.3492C21.1742 90.2544 27.5153 96.7948 35.4205 96.8408C40.7341 96.8714 45.3883 93.9961 47.8879 89.7176C48.1179 90.8371 48.4016 91.9489 48.7466 93.0377C45.626 96.9558 40.8031 99.463 35.4052 99.4324C26.0661 99.3787 18.5826 91.6652 18.5826 82.3261V76.5678C18.5826 75.8241 17.9846 75.226 17.2408 75.226C16.8728 75.226 16.5354 75.3794 16.29 75.6171C16.0447 75.8624 15.899 76.1921 15.899 76.5678V82.5102C15.899 93.3214 24.6936 102.116 35.5048 102.116C41.1251 102.116 46.2087 99.7391 49.7818 95.9283C50.1345 96.7794 50.5178 97.6228 50.9319 98.4509C46.9371 102.323 41.4932 104.708 35.5048 104.708C23.2675 104.708 13.315 94.7552 13.315 82.5178V79.6118C13.315 78.8681 12.717 78.27 11.9732 78.27C11.6052 78.27 11.2678 78.4234 11.0225 78.6611C10.7771 78.9064 10.6314 79.2361 10.6314 79.6118V82.3031C10.6314 95.982 21.8183 107.384 35.4972 107.391C41.9609 107.391 47.8572 104.922 52.289 100.866C52.7261 101.587 53.1938 102.3 53.6922 102.99C48.7236 107.414 42.1756 110.083 35.0908 109.975C20.1391 109.745 8.05513 97.5155 8.05513 82.5178V73.7155C8.05513 73.0024 7.5184 72.3814 6.80532 72.3277C6.02324 72.274 5.3715 72.8951 5.3715 73.6618V82.5102C5.3715 90.5611 8.50751 98.1289 14.2045 103.826C19.8401 109.461 27.3236 112.597 35.2825 112.659C42.6816 112.713 49.8508 110.037 55.3867 105.183C55.9388 105.835 56.5138 106.479 57.1119 107.092C51.3459 112.168 43.7858 115.243 35.5202 115.243C17.4708 115.243 2.78754 100.559 2.78754 82.5102V77.994C2.78754 77.2502 2.18948 76.6522 1.44573 76.6522C1.07769 76.6522 0.740316 76.8055 0.494956 77.0432C0.249595 77.2886 0.103912 77.6183 0.103912 77.994V82.5102C0.103912 91.9719 3.78432 100.866 10.4781 107.552C17.1641 114.238 26.0585 117.926 35.5202 117.926C44.2918 117.926 52.5727 114.76 59.0671 108.963C65.5538 114.744 73.8271 117.903 82.5834 117.903C92.0451 117.903 100.939 114.215 107.626 107.529C114.312 100.843 118 91.9412 118 82.4872V35.4163C117.977 25.9545 114.289 17.0679 107.595 10.3742Z" fill="url(#paint5_linear_54_1315)"/>
<path id="Vector_7" fill-rule="evenodd" clip-rule="evenodd" d="M55.0879 67.2136C54.6891 66.7075 54.2751 66.2168 53.8457 65.7414C53.3857 65.2354 52.9026 64.7523 52.4042 64.2846C52.2202 64.1159 52.0362 63.9472 51.8445 63.7785C51.2004 63.2111 50.518 62.6821 49.8126 62.1837C49.7589 62.1454 49.6976 62.0994 49.6439 62.061C48.8388 61.5013 48.0031 60.9876 47.129 60.5275C47.0523 60.4892 46.9756 60.4432 46.8989 60.4048C45.8255 59.8451 44.6984 59.3621 43.5406 58.9634C44.6984 58.5646 45.8255 58.0816 46.8989 57.5219C46.9756 57.4835 47.0523 57.4452 47.129 57.3992C48.0031 56.9391 48.8388 56.4254 49.6439 55.8657C49.6976 55.8273 49.7589 55.789 49.8126 55.743C50.518 55.2446 51.1928 54.7079 51.8445 54.1481C52.0362 53.9795 52.2202 53.8108 52.4042 53.6421C52.9026 53.1744 53.3857 52.6913 53.8457 52.1853C54.2751 51.7099 54.6968 51.2192 55.0879 50.7131C56.077 49.448 56.9434 48.0908 57.6795 46.6493C59.397 43.2756 60.3631 39.4572 60.3631 35.4164V35.3934C60.3631 32.6331 60.8692 29.9801 61.7969 27.5342C62.2493 26.3457 62.8014 25.2109 63.4378 24.1221C63.9592 23.248 64.5342 22.4046 65.1706 21.6072C65.7764 20.8481 66.4281 20.1274 67.1259 19.445C71.1206 15.5729 76.5646 13.1883 82.5529 13.1883C94.7903 13.1883 104.743 23.1407 104.743 35.3781V82.4413C104.743 94.6786 94.7903 104.631 82.5529 104.631C76.5722 104.631 71.136 102.254 67.1412 98.3897C66.4434 97.715 65.784 96.9942 65.1783 96.2351C64.5496 95.4454 63.9745 94.6096 63.4608 93.7432C62.809 92.6467 62.2493 91.489 61.7893 90.2852C60.8692 87.8546 60.3631 85.2169 60.3554 82.4643V82.4413C60.3554 78.4158 59.3817 74.6051 57.6718 71.2314C56.9434 69.8359 56.077 68.4711 55.0879 67.2136ZM59.0213 90.5535C59.4123 91.696 59.8877 92.8078 60.4398 93.8659C60.9382 94.832 61.4979 95.7598 62.119 96.6492C62.648 97.416 63.2231 98.1444 63.8365 98.8498C64.4499 99.5475 65.1093 100.222 65.7994 100.851C70.2235 104.892 76.1045 107.353 82.5529 107.353C96.2701 107.353 107.426 96.1968 107.426 82.4796V35.4164C107.426 21.6992 96.2701 10.543 82.5529 10.543C76.0969 10.543 70.2082 13.0196 65.7764 17.068C65.0863 17.6968 64.4346 18.3638 63.8212 19.0693C63.2078 19.7747 62.6327 20.5107 62.096 21.2852C61.4902 22.1593 60.9458 23.064 60.4551 24.0148C59.8877 25.0959 59.4047 26.2307 59.006 27.4038C58.1472 29.9188 57.6795 32.6178 57.6795 35.4241V35.4471C57.6795 39.2041 56.744 42.7389 55.0879 45.8442C54.3364 47.255 53.4317 48.5815 52.4042 49.793C52.0899 50.161 51.7602 50.5214 51.4228 50.8664C50.9167 51.3955 50.3723 51.9016 49.8126 52.3769C49.6362 52.5303 49.4522 52.6837 49.2682 52.8293C48.5858 53.3737 47.8727 53.8721 47.129 54.3322C47.014 54.4088 46.8913 54.4778 46.7763 54.5469C45.6951 55.1909 44.545 55.743 43.3489 56.203C40.9029 57.1308 38.25 57.6445 35.482 57.6445H29.808C29.095 57.6445 28.4739 58.1813 28.4202 58.8943C28.3666 59.6764 28.9876 60.3205 29.7544 60.3205H35.482C38.25 60.3205 40.9029 60.8266 43.3489 61.762C44.545 62.2144 45.6875 62.7741 46.7763 63.4182C46.8989 63.4872 47.014 63.5639 47.129 63.6329C47.8727 64.0929 48.5858 64.5913 49.2682 65.1357C49.4522 65.2814 49.6362 65.4347 49.8126 65.5804C50.38 66.0558 50.9167 66.5619 51.4228 67.0909C51.7602 67.436 52.0899 67.7963 52.3966 68.1644C53.424 69.3758 54.3288 70.7023 55.0802 72.1131C56.7287 75.2108 57.6641 78.7379 57.6718 82.4873V82.5103C57.6795 85.3243 58.1549 88.0309 59.0213 90.5535Z" fill="url(#paint6_linear_54_1315)"/>
</g>
<defs>
<linearGradient id="paint0_linear_54_1315" x1="116.065" y1="25.4346" x2="9.27297" y2="132.226" gradientUnits="userSpaceOnUse">
<stop stop-color="#36E2F7"/>
<stop offset="0.3294" stop-color="#A63CD2"/>
<stop offset="0.6588" stop-color="#D03080"/>
<stop offset="0.7686" stop-color="#FA232E"/>
<stop offset="1" stop-color="#FA232E"/>
</linearGradient>
<linearGradient id="paint1_linear_54_1315" x1="75.5231" y1="-14.5059" x2="-31.2685" y2="91.1379" gradientUnits="userSpaceOnUse">
<stop stop-color="#36E2F7"/>
<stop offset="0.3294" stop-color="#A63CD2"/>
<stop offset="0.6588" stop-color="#D03080"/>
<stop offset="0.7686" stop-color="#FA232E"/>
<stop offset="1" stop-color="#FA232E"/>
</linearGradient>
<linearGradient id="paint2_linear_54_1315" x1="116.067" y1="25.4363" x2="9.27552" y2="132.228" gradientUnits="userSpaceOnUse">
<stop stop-color="#36E2F7"/>
<stop offset="0.3294" stop-color="#A63CD2"/>
<stop offset="0.6588" stop-color="#D03080"/>
<stop offset="0.7686" stop-color="#FA232E"/>
<stop offset="1" stop-color="#FA232E"/>
</linearGradient>
<linearGradient id="paint3_linear_54_1315" x1="87.7195" y1="-2.31452" x2="-19.0722" y2="103.667" gradientUnits="userSpaceOnUse">
<stop stop-color="#36E2F7"/>
<stop offset="0.3294" stop-color="#A63CD2"/>
<stop offset="0.6588" stop-color="#D03080"/>
<stop offset="0.7686" stop-color="#FA232E"/>
<stop offset="1" stop-color="#FA232E"/>
</linearGradient>
<linearGradient id="paint4_linear_54_1315" x1="116.067" y1="25.4359" x2="9.27502" y2="132.228" gradientUnits="userSpaceOnUse">
<stop stop-color="#36E2F7"/>
<stop offset="0.3294" stop-color="#A63CD2"/>
<stop offset="0.6588" stop-color="#D03080"/>
<stop offset="0.7686" stop-color="#FA232E"/>
<stop offset="1" stop-color="#FA232E"/>
</linearGradient>
<linearGradient id="paint5_linear_54_1315" x1="104.307" y1="13.6773" x2="-2.48482" y2="120.469" gradientUnits="userSpaceOnUse">
<stop stop-color="#36E2F7"/>
<stop offset="0.3294" stop-color="#A63CD2"/>
<stop offset="0.6588" stop-color="#D03080"/>
<stop offset="0.7686" stop-color="#FA232E"/>
<stop offset="1" stop-color="#FA232E"/>
</linearGradient>
<linearGradient id="paint6_linear_54_1315" x1="116.052" y1="25.4274" x2="9.32601" y2="132.219" gradientUnits="userSpaceOnUse">
<stop stop-color="#36E2F7"/>
<stop offset="0.3294" stop-color="#A63CD2"/>
<stop offset="0.6588" stop-color="#D03080"/>
<stop offset="0.7686" stop-color="#FA232E"/>
<stop offset="1" stop-color="#FA232E"/>
</linearGradient>
</defs>
</svg>
