<svg width="143" height="41" viewBox="0 0 143 41" fill="none" xmlns="http://www.w3.org/2000/svg">
<path fill-rule="evenodd" clip-rule="evenodd" d="M10.9157 27.381C10.8566 27.3423 10.7721 27.2861 10.6659 27.2132C10.4536 27.0674 10.1539 26.8541 9.79583 26.5791C9.08125 26.0303 8.1266 25.2299 7.16903 24.2229C5.27981 22.236 3.25 19.3085 3.25 15.8337C3.25 13.608 4.11431 11.4695 5.65913 9.88956C7.20464 8.30893 9.30523 7.41705 11.5 7.41705C13.6948 7.41705 15.7954 8.30893 17.3409 9.88956C18.8857 11.4695 19.75 13.608 19.75 15.8337C19.75 19.3085 17.7202 22.236 15.831 24.2229C14.8734 25.2299 13.9187 26.0303 13.2042 26.5791C12.8461 26.8541 12.5464 27.0674 12.3341 27.2132C12.2279 27.2861 12.1434 27.3423 12.0844 27.381L11.9865 27.444C11.6889 27.6303 11.3105 27.6299 11.013 27.4437L10.9157 27.381ZM6.96997 11.1713C8.175 9.93887 9.8049 9.25039 11.5 9.25039C13.1951 9.25039 14.825 9.93887 16.03 11.1713C17.2358 12.4044 17.9167 14.0811 17.9167 15.8337C17.9167 18.601 16.2798 21.0902 14.5024 22.9595C13.6266 23.8806 12.7479 24.6179 12.0875 25.1251C11.7405 25.3917 11.2595 25.3917 10.9125 25.1251C10.2521 24.6179 9.3734 23.8806 8.49763 22.9595C6.72019 21.0902 5.08333 18.601 5.08333 15.8337C5.08333 14.0811 5.76426 12.4044 6.96997 11.1713ZM7.83333 15.6671C7.83333 13.642 9.47495 12.0004 11.5 12.0004C13.525 12.0004 15.1667 13.642 15.1667 15.6671C15.1667 17.6921 13.525 19.3337 11.5 19.3337C9.47495 19.3337 7.83333 17.6921 7.83333 15.6671ZM9.66667 15.6671C9.66667 14.6545 10.4874 13.8337 11.5 13.8337C12.5125 13.8337 13.3333 14.6545 13.3333 15.6671C13.3333 16.6796 12.5125 17.5004 11.5 17.5004C10.4874 17.5004 9.66667 16.6796 9.66667 15.6671Z" fill="#F687EB"/>
<path d="M37.772 25.234C35.864 25.234 34.286 24.604 33.038 23.344C31.802 22.084 31.184 20.536 31.184 18.7C31.184 16.864 31.802 15.316 33.038 14.056C34.286 12.796 35.864 12.166 37.772 12.166C38.924 12.166 39.98 12.442 40.94 12.994C41.912 13.546 42.668 14.29 43.208 15.226L41.75 16.072C41.39 15.376 40.85 14.824 40.13 14.416C39.422 13.996 38.636 13.786 37.772 13.786C36.32 13.786 35.132 14.254 34.208 15.19C33.296 16.126 32.84 17.296 32.84 18.7C32.84 20.092 33.296 21.256 34.208 22.192C35.132 23.128 36.32 23.596 37.772 23.596C38.636 23.596 39.422 23.392 40.13 22.984C40.85 22.564 41.39 22.012 41.75 21.328L43.208 22.156C42.68 23.092 41.93 23.842 40.958 24.406C39.986 24.958 38.924 25.234 37.772 25.234ZM52.5028 23.866C51.5788 24.778 50.4568 25.234 49.1368 25.234C47.8168 25.234 46.6948 24.778 45.7708 23.866C44.8588 22.954 44.4028 21.832 44.4028 20.5C44.4028 19.168 44.8588 18.046 45.7708 17.134C46.6948 16.222 47.8168 15.766 49.1368 15.766C50.4568 15.766 51.5788 16.222 52.5028 17.134C53.4268 18.046 53.8887 19.168 53.8887 20.5C53.8887 21.832 53.4268 22.954 52.5028 23.866ZM49.1368 23.704C50.0368 23.704 50.7928 23.398 51.4048 22.786C52.0168 22.174 52.3228 21.412 52.3228 20.5C52.3228 19.588 52.0168 18.826 51.4048 18.214C50.7928 17.602 50.0368 17.296 49.1368 17.296C48.2488 17.296 47.4988 17.602 46.8868 18.214C46.2748 18.826 45.9688 19.588 45.9688 20.5C45.9688 21.412 46.2748 22.174 46.8868 22.786C47.4988 23.398 48.2488 23.704 49.1368 23.704ZM60.2169 15.766C61.2729 15.766 62.1189 16.102 62.7549 16.774C63.3909 17.434 63.7089 18.334 63.7089 19.474V25H62.1429V19.564C62.1429 18.832 61.9449 18.268 61.5489 17.872C61.1529 17.464 60.6069 17.26 59.9109 17.26C59.1309 17.26 58.5009 17.506 58.0209 17.998C57.5409 18.478 57.3009 19.222 57.3009 20.23V25H55.7349V16H57.3009V17.296C57.9369 16.276 58.9089 15.766 60.2169 15.766ZM73.365 16H74.913V24.622C74.913 25.954 74.463 26.986 73.563 27.718C72.663 28.462 71.583 28.834 70.323 28.834C69.315 28.834 68.445 28.642 67.713 28.258C66.981 27.886 66.429 27.346 66.057 26.638L67.425 25.864C67.917 26.872 68.895 27.376 70.359 27.376C71.295 27.376 72.027 27.13 72.555 26.638C73.095 26.146 73.365 25.474 73.365 24.622V23.344C72.573 24.544 71.445 25.144 69.981 25.144C68.697 25.144 67.611 24.688 66.723 23.776C65.835 22.864 65.391 21.754 65.391 20.446C65.391 19.138 65.835 18.034 66.723 17.134C67.611 16.222 68.697 15.766 69.981 15.766C71.457 15.766 72.585 16.36 73.365 17.548V16ZM67.875 22.732C68.487 23.344 69.249 23.65 70.161 23.65C71.073 23.65 71.835 23.344 72.447 22.732C73.059 22.12 73.365 21.358 73.365 20.446C73.365 19.546 73.059 18.79 72.447 18.178C71.835 17.566 71.073 17.26 70.161 17.26C69.249 17.26 68.487 17.566 67.875 18.178C67.263 18.79 66.957 19.546 66.957 20.446C66.957 21.358 67.263 22.12 67.875 22.732ZM78.8517 17.512C79.3677 16.396 80.3037 15.838 81.6597 15.838V17.476C80.8917 17.44 80.2317 17.644 79.6797 18.088C79.1277 18.532 78.8517 19.246 78.8517 20.23V25H77.2857V16H78.8517V17.512ZM83.7977 21.22C83.9537 22.024 84.3197 22.648 84.8957 23.092C85.4837 23.536 86.2037 23.758 87.0557 23.758C88.2437 23.758 89.1077 23.32 89.6477 22.444L90.9797 23.2C90.1037 24.556 88.7837 25.234 87.0197 25.234C85.5917 25.234 84.4277 24.79 83.5277 23.902C82.6397 23.002 82.1957 21.868 82.1957 20.5C82.1957 19.144 82.6337 18.016 83.5097 17.116C84.3857 16.216 85.5197 15.766 86.9117 15.766C88.2317 15.766 89.3057 16.234 90.1337 17.17C90.9737 18.094 91.3937 19.21 91.3937 20.518C91.3937 20.746 91.3757 20.98 91.3397 21.22H83.7977ZM86.9117 17.242C86.0717 17.242 85.3757 17.482 84.8237 17.962C84.2717 18.43 83.9297 19.06 83.7977 19.852H89.8097C89.6777 19 89.3417 18.352 88.8017 17.908C88.2617 17.464 87.6317 17.242 86.9117 17.242ZM94.1923 18.43C94.1923 18.778 94.3663 19.06 94.7143 19.276C95.0623 19.48 95.4823 19.648 95.9743 19.78C96.4663 19.9 96.9583 20.044 97.4503 20.212C97.9423 20.368 98.3623 20.644 98.7103 21.04C99.0583 21.424 99.2323 21.922 99.2323 22.534C99.2323 23.35 98.9143 24.004 98.2783 24.496C97.6543 24.988 96.8503 25.234 95.8663 25.234C94.9903 25.234 94.2403 25.042 93.6163 24.658C92.9923 24.274 92.5483 23.764 92.2843 23.128L93.6343 22.354C93.7783 22.786 94.0483 23.128 94.4443 23.38C94.8403 23.632 95.3143 23.758 95.8663 23.758C96.3823 23.758 96.8083 23.662 97.1443 23.47C97.4803 23.266 97.6483 22.954 97.6483 22.534C97.6483 22.186 97.4743 21.91 97.1263 21.706C96.7783 21.49 96.3583 21.322 95.8663 21.202C95.3743 21.07 94.8823 20.92 94.3903 20.752C93.8983 20.584 93.4783 20.308 93.1303 19.924C92.7823 19.54 92.6083 19.048 92.6083 18.448C92.6083 17.668 92.9083 17.026 93.5083 16.522C94.1203 16.018 94.8823 15.766 95.7943 15.766C96.5263 15.766 97.1743 15.934 97.7383 16.27C98.3143 16.594 98.7463 17.05 99.0343 17.638L97.7203 18.376C97.3963 17.608 96.7543 17.224 95.7943 17.224C95.3503 17.224 94.9723 17.332 94.6603 17.548C94.3483 17.752 94.1923 18.046 94.1923 18.43ZM101.874 18.43C101.874 18.778 102.048 19.06 102.396 19.276C102.744 19.48 103.164 19.648 103.656 19.78C104.148 19.9 104.64 20.044 105.132 20.212C105.624 20.368 106.044 20.644 106.392 21.04C106.74 21.424 106.914 21.922 106.914 22.534C106.914 23.35 106.596 24.004 105.96 24.496C105.336 24.988 104.532 25.234 103.548 25.234C102.672 25.234 101.922 25.042 101.298 24.658C100.674 24.274 100.23 23.764 99.9659 23.128L101.316 22.354C101.46 22.786 101.73 23.128 102.126 23.38C102.522 23.632 102.996 23.758 103.548 23.758C104.064 23.758 104.49 23.662 104.826 23.47C105.162 23.266 105.33 22.954 105.33 22.534C105.33 22.186 105.156 21.91 104.808 21.706C104.46 21.49 104.04 21.322 103.548 21.202C103.056 21.07 102.564 20.92 102.072 20.752C101.58 20.584 101.16 20.308 100.812 19.924C100.464 19.54 100.29 19.048 100.29 18.448C100.29 17.668 100.59 17.026 101.19 16.522C101.802 16.018 102.564 15.766 103.476 15.766C104.208 15.766 104.856 15.934 105.42 16.27C105.996 16.594 106.428 17.05 106.716 17.638L105.402 18.376C105.078 17.608 104.436 17.224 103.476 17.224C103.032 17.224 102.654 17.332 102.342 17.548C102.03 17.752 101.874 18.046 101.874 18.43ZM121.224 12.4H122.88V25H121.224V19.33H115.104V25H113.43V12.4H115.104V17.746H121.224V12.4ZM132.867 16H134.433V25H132.867V23.452C132.087 24.64 130.953 25.234 129.465 25.234C128.205 25.234 127.131 24.778 126.243 23.866C125.355 22.942 124.911 21.82 124.911 20.5C124.911 19.18 125.355 18.064 126.243 17.152C127.131 16.228 128.205 15.766 129.465 15.766C130.953 15.766 132.087 16.36 132.867 17.548V16ZM129.663 23.722C130.575 23.722 131.337 23.416 131.949 22.804C132.561 22.18 132.867 21.412 132.867 20.5C132.867 19.588 132.561 18.826 131.949 18.214C131.337 17.59 130.575 17.278 129.663 17.278C128.763 17.278 128.007 17.59 127.395 18.214C126.783 18.826 126.477 19.588 126.477 20.5C126.477 21.412 126.783 22.18 127.395 22.804C128.007 23.416 128.763 23.722 129.663 23.722ZM136.805 25V11.86H138.371V25H136.805ZM140.76 25V11.86H142.326V25H140.76Z" fill="#F787EB"/>
</svg>
