<svg width="23" height="23" viewBox="0 0 23 23" fill="none" xmlns="http://www.w3.org/2000/svg">
<g id="location-svgrepo-com 1">
<path id="Union" fill-rule="evenodd" clip-rule="evenodd" d="M10.9157 21.381C10.8566 21.3423 10.7721 21.2861 10.6659 21.2132C10.4536 21.0674 10.1539 20.8541 9.79583 20.5791C9.08125 20.0303 8.1266 19.2299 7.16903 18.2229C5.27981 16.236 3.25 13.3085 3.25 9.8337C3.25 7.60805 4.11431 5.46949 5.65913 3.88956C7.20464 2.30893 9.30523 1.41705 11.5 1.41705C13.6948 1.41705 15.7954 2.30893 17.3409 3.88956C18.8857 5.46949 19.75 7.60805 19.75 9.8337C19.75 13.3085 17.7202 16.236 15.831 18.2229C14.8734 19.2299 13.9187 20.0303 13.2042 20.5791C12.8461 20.8541 12.5464 21.0674 12.3341 21.2132C12.2279 21.2861 12.1434 21.3423 12.0844 21.381L11.9865 21.444C11.6889 21.6303 11.3105 21.6299 11.013 21.4437L10.9157 21.381ZM6.96997 5.17128C8.175 3.93887 9.8049 3.25039 11.5 3.25039C13.1951 3.25039 14.825 3.93887 16.03 5.17128C17.2358 6.40439 17.9167 8.08115 17.9167 9.8337C17.9167 12.601 16.2798 15.0902 14.5024 16.9595C13.6266 17.8806 12.7479 18.6179 12.0875 19.1251C11.7405 19.3917 11.2595 19.3917 10.9125 19.1251C10.2521 18.6179 9.3734 17.8806 8.49763 16.9595C6.72019 15.0902 5.08333 12.601 5.08333 9.8337C5.08333 8.08115 5.76426 6.40439 6.96997 5.17128ZM7.83333 9.66705C7.83333 7.64201 9.47495 6.00039 11.5 6.00039C13.525 6.00039 15.1667 7.64201 15.1667 9.66705C15.1667 11.6921 13.525 13.3337 11.5 13.3337C9.47495 13.3337 7.83333 11.6921 7.83333 9.66705ZM9.66667 9.66705C9.66667 8.65453 10.4874 7.83372 11.5 7.83372C12.5125 7.83372 13.3333 8.65453 13.3333 9.66705C13.3333 10.6796 12.5125 11.5004 11.5 11.5004C10.4874 11.5004 9.66667 10.6796 9.66667 9.66705Z" fill="#F687EB"/>
</g>
</svg>
