<svg width="19" height="20" viewBox="0 0 19 20" fill="none" xmlns="http://www.w3.org/2000/svg">
<g id="location-svgrepo-com 1">
<path id="Vector" fill-rule="evenodd" clip-rule="evenodd" d="M9.05132 5.4743C7.385 5.4743 6.03418 6.82512 6.03418 8.49145C6.03418 10.1577 7.385 11.5086 9.05132 11.5086C10.7176 11.5086 12.0685 10.1577 12.0685 8.49145C12.0685 6.82512 10.7176 5.4743 9.05132 5.4743ZM9.05132 6.98288C8.21814 6.98288 7.54275 7.65829 7.54275 8.49145C7.54275 9.32463 8.21814 10 9.05132 10C9.88451 10 10.5599 9.32463 10.5599 8.49145C10.5599 7.65829 9.88451 6.98288 9.05132 6.98288Z" fill="white"/>
<path id="Vector_2" fill-rule="evenodd" clip-rule="evenodd" d="M8.36494 17.9922C8.45229 18.0522 8.52183 18.0984 8.57049 18.1303L8.65052 18.1819C8.89536 18.3351 9.20672 18.3354 9.45157 18.1822L9.53212 18.1303C9.5807 18.0984 9.65024 18.0522 9.73759 17.9922C9.91228 17.8722 10.1589 17.6968 10.4536 17.4705C11.0415 17.0189 11.8271 16.3602 12.615 15.5316C14.1696 13.8967 15.8398 11.4878 15.8398 8.62852C15.8398 6.79712 15.1286 5.0374 13.8575 3.73734C12.5858 2.43671 10.8573 1.70282 9.05127 1.70282C7.24529 1.70282 5.5168 2.43671 4.24506 3.73734C2.9739 5.0374 2.2627 6.79712 2.2627 8.62852C2.2627 11.4878 3.93294 13.8967 5.4875 15.5316C6.27544 16.3602 7.06098 17.0189 7.64897 17.4705C7.9436 17.6968 8.19025 17.8722 8.36494 17.9922ZM9.05127 3.21139C7.65644 3.21139 6.31527 3.77791 5.3237 4.79201C4.33157 5.80668 3.77127 7.18642 3.77127 8.62852C3.77127 10.9056 5.11816 12.9539 6.58075 14.492C7.30138 15.2499 8.02438 15.8567 8.56785 16.274C8.8534 16.4934 9.24913 16.4934 9.53469 16.274C10.0782 15.8567 10.8011 15.2499 11.5218 14.492C12.9843 12.9539 14.3313 10.9056 14.3313 8.62852C14.3313 7.18642 13.771 5.80668 12.7788 4.79201C11.7873 3.77791 10.4461 3.21139 9.05127 3.21139Z" fill="white"/>
</g>
</svg>
