<svg width="145" height="46" viewBox="0 0 145 46" fill="none" xmlns="http://www.w3.org/2000/svg">
<path fill-rule="evenodd" clip-rule="evenodd" d="M19.521 0.758179H18.6572C18.3021 0.959723 16.7186 0.959723 16.3635 1.50677C18.3501 1.95785 21.4117 5.14416 21.4117 7.72585V7.8794C21.4117 9.67411 20.5959 10.9122 19.8857 12.0063C20.0392 12.1598 20.2888 12.3038 20.5959 12.3038C21.1525 12.3038 21.4596 11.1137 21.5652 10.6626C21.7668 10.0196 22.0739 9.36699 22.381 8.81994C22.8417 7.82182 23.7054 6.28625 24.5212 5.68161C25.5385 4.93302 26.815 4.43396 28.3409 4.18443C28.8016 4.13644 33.034 3.58939 33.082 3.54141C32.8229 3.24389 29.5694 2.4953 28.8016 2.4953H28.4945C27.4772 2.4953 26.3543 2.88879 25.5865 3.13832C24.8763 3.38785 23.6478 4.2804 23.2927 4.38597C23.2927 3.83892 22.2178 2.44731 21.9203 2.14979C21.5652 1.80429 21.3061 1.50677 20.903 1.25724C20.3943 0.911736 19.8281 0.959723 19.521 0.758179ZM23.907 37.7847C23.907 37.0841 24.1661 36.1436 24.4156 35.6445C24.5692 35.347 25.2314 34.0993 25.2794 33.9554C24.9723 33.9074 25.0203 33.8018 24.7227 33.8018H24.4732C23.9166 33.8018 23.811 35.1454 23.6094 35.5965C23.3503 36.2395 23.1008 36.8922 22.8417 37.4872C22.4386 38.5333 21.5172 39.9249 20.7015 40.6255C19.425 41.7676 14.6839 42.6698 12.3422 42.8617C12.4957 43.1112 15.5573 43.7543 16.1139 43.7543H17.2368C18.0046 43.7543 19.425 43.2552 19.9337 43.0057C20.4423 42.8041 21.9203 41.8636 22.0739 41.8156C22.2274 42.4106 23.2448 43.6103 23.6574 44.0518C24.3676 44.6948 24.9339 45.2418 26.2583 45.2418C27.0741 45.2418 28.9552 44.7908 29.2143 44.4453C28.197 44.4453 26.4119 42.8041 25.7976 42.2091C24.9819 41.4125 23.907 40.0209 23.907 38.4277V37.7847ZM33.2356 40.7695C33.2356 39.3779 35.9324 36.3451 35.9324 33.9554V33.7058C35.9324 31.8152 33.2836 28.9264 31.8536 28.5809C31.8536 29.0799 31.3449 30.9226 31.1913 31.3161C30.7307 32.2566 30.5291 32.5638 29.8189 33.2548C29.0511 34.0034 26.7574 35.7885 26.7574 36.9401V37.7847C26.7574 39.1283 28.0338 40.5679 28.5905 41.4701C29.2527 42.4106 30.7787 43.2648 32.3622 43.2648H33.4947L33.2356 41.4221V40.7695ZM3.66618 27.8803C2.95598 27.1317 0.86376 24.3964 0.403088 24.0989C0.451075 25.193 1.72752 28.2833 2.34175 28.8784C3.31108 29.8765 4.6835 31.3641 6.21907 31.7192C6.01753 32.5638 4.94263 33.7634 4.94263 35.155V35.9036C4.94263 36.9977 6.67975 38.7924 7.49552 39.1859L7.38995 37.9863V37.5832C7.38995 35.894 8.31129 33.4563 9.06948 32.5542C10.0868 31.4601 11.7759 30.5675 13.8586 30.5675H14.8759C14.8759 30.174 14.5688 29.5694 14.2137 29.627L9.62613 30.4236L9.57814 30.3756H8.35928C6.1135 30.366 4.84666 28.9744 3.66618 27.8803ZM11.4208 41.9212C13.2059 39.2819 15.2406 40.1744 18.3501 39.1379C19.8281 38.6389 20.5959 38.5429 21.4117 37.2952C22.0259 36.4027 22.4866 35.155 22.4866 33.6579V31.8632C21.5652 32.1127 19.8377 33.3603 18.4077 33.1588V33.2548L13.9737 32.5542L13.6186 32.6021C11.5264 32.6021 9.79888 35.8844 9.79888 37.9767V38.7732C9.78928 39.9249 10.7106 41.4125 11.4208 41.9212ZM45.4242 28.5329C44.6084 28.936 44.2533 29.4254 43.1304 29.7229C42.4202 29.9725 41.0958 30.366 40.2224 30.366H39.9153C38.2358 30.366 37.1609 29.8669 36.2491 29.0703C35.6349 28.5233 34.464 27.1796 34.2625 26.2295C33.9554 26.3255 33.4947 26.6326 33.4947 26.8725V26.9685C33.4947 27.6691 37.6216 30.7978 37.6216 34.4832C37.6216 35.5293 36.8538 37.516 36.5467 38.3605C36.3451 38.9556 36.086 39.5026 35.8365 40.1553C35.6349 40.6063 35.1742 41.3453 35.0687 41.7964C35.4238 41.7004 37.6695 39.3107 37.9191 38.9076C38.6293 37.7655 39.2915 36.4699 39.2915 34.6752V33.034H40.8847C42.1611 33.034 43.6391 32.487 44.1478 31.7864C44.7044 31.0666 45.4242 29.7229 45.4242 28.5329ZM79.7347 14.3H83.7656V32.6597C83.7656 32.8613 83.8135 32.9093 84.0247 32.9093H86.8751V14.3H91.3571V12.6109H79.7347V14.3ZM107.97 14.396H112.202C113.325 14.396 113.632 15.7396 114.036 16.3347L114.343 18.3213L114.295 27.5252C114.295 29.1183 113.632 31.1529 112.049 31.1529H107.97V14.396ZM113.68 32.9093C116.022 32.9093 117.251 29.9725 117.251 27.6307V17.9278C117.251 15.5381 116.032 12.7069 113.632 12.7069H104.765V32.9093H113.68ZM58.2654 21.2677C58.2654 19.8281 58.7741 18.6284 60.3577 18.6284H65.2043V16.9393H58.275C57.2577 16.9393 56.0868 17.7359 55.7221 18.3789C55.3095 19.1755 55.1655 20.4711 55.1655 21.7092V28.9264C55.1655 31.2681 56.2884 32.9093 58.7357 32.9093H65.2139V31.2201H61.0871C59.254 31.2201 58.2846 30.6251 58.2846 28.8304V21.2677H58.2654ZM93.4493 32.6597C93.4493 32.8613 93.4973 32.9093 93.7084 32.9093H102.73V31.4121C102.73 31.2105 102.682 31.1625 102.471 31.1625H96.6548V12.6013H93.4397V32.6597H93.4493ZM119.036 28.7344C119.036 31.2681 120.053 32.9189 122.654 32.9189H131.627V16.8817H128.566V31.2105H124.132C122.808 31.2105 122.145 30.1644 122.145 28.9264V16.8913H119.036V28.7344ZM32.5734 18.83C33.082 19.5306 34.0993 20.1736 34.6656 20.9702C35.2222 21.7668 35.6349 22.9088 35.7885 24.1085C36.0956 26.7478 37.0649 28.4369 40.0689 28.4369H40.5775C42.3626 28.4369 43.0249 28.2833 44.1957 27.6403C44.7524 27.2948 46.0864 26.0472 46.1344 25.2026C45.2706 25.0011 43.9942 24.31 43.4375 23.763C42.9289 23.216 42.3626 21.9203 41.854 21.1717C40.7311 19.5306 39.6658 17.6879 36.9593 17.6879H36.8538C35.1263 17.6783 33.7538 18.2253 32.5734 18.83ZM0 21.7668C2.60088 22.3618 3.26309 23.1584 4.48196 25.097C5.19216 26.1911 7.23639 28.3313 9.0215 28.3313H9.83727C10.701 28.3313 11.5744 28.0338 12.2846 27.8323C12.9468 27.5827 13.8106 26.9397 14.2233 26.8341C14.1177 26.5846 12.3422 25.337 11.9775 24.8955C11.1617 23.8974 11.0081 23.5039 10.5475 22.1123C9.77969 19.9241 9.53016 17.9278 6.42062 17.9278C5.09619 17.9278 2.95598 18.3309 2.18819 18.878C0.710203 19.9241 0.767787 20.1736 0 21.7668ZM67.7476 21.3637V28.3313C67.7476 31.0186 68.5634 32.9093 71.2602 32.9093H77.7384V31.2201H73.8131C71.5194 31.2201 70.8571 30.5771 70.8571 28.3313V21.6132C70.8571 20.068 71.2122 18.6284 72.7958 18.6284H77.7384V16.9393H71.0107C68.5634 16.9393 67.7476 18.9259 67.7476 21.3637ZM16.1619 24.598C16.1619 26.2391 17.1792 27.1317 18.8588 27.1317C20.3368 27.1317 20.4903 26.4311 21.2581 25.9416V26.9877H22.429V19.425H21.1045V23.8494C21.1045 25.193 20.4423 26.0376 19.0699 26.0376H18.7148C18.1582 26.0376 17.4959 25.241 17.4959 24.7419V19.4154H16.1715L16.1619 24.598ZM39.0996 7.47632V8.628C39.0996 10.2691 38.0822 12.3614 37.3624 13.4075C36.6522 14.4536 34.608 15.3461 32.8229 15.3461H31.4985V15.6916C31.4985 15.9892 31.7576 16.3347 32.0071 16.3347L32.1127 16.2867L37.0073 15.6916C37.9287 15.5381 39.6562 15.9892 40.1649 16.2867C41.1342 16.8817 41.5373 17.2272 42.3051 17.9758C43.0153 18.7244 43.428 19.2235 44.0902 20.02C44.2917 20.2696 45.7217 22.0067 45.8273 22.1123C45.7793 20.7686 44.6084 18.0814 43.9462 17.2848C43.1304 16.2387 41.4989 14.6935 40.0689 14.396C40.0689 14.396 40.8367 13.0044 40.9902 12.7549C41.1918 12.3518 41.5469 11.2097 41.5469 10.7106C41.5469 9.319 40.0209 7.1788 38.994 6.92927C39.0036 7.1788 39.0996 7.22678 39.0996 7.47632ZM24.0605 20.4711H28.6481C28.1394 21.2197 23.8014 25.7496 23.8014 26.0472V26.9877H30.6347V25.8456H27.0165L25.4329 25.9416C25.5865 25.4905 30.3756 20.5191 30.3756 20.2696V19.425H24.0509V20.4711H24.0605ZM144.574 32.8613V31.2201H137.741L144.469 18.3789V16.8817H133.969V18.5708H141.11C140.908 19.5114 138.202 24.0413 137.539 25.337C137.136 26.1815 133.969 31.7096 133.969 32.1031V32.8997H144.315C144.622 32.9093 144.373 32.9572 144.574 32.8613ZM6.88129 11.0177V12.2078L6.98686 13.1004C6.72773 13.1004 6.67975 13.0524 6.43022 13.0524H5.4033C2.70645 13.0524 0.921344 14.943 0.921344 17.5823C1.68913 17.1792 2.24578 16.6418 3.26309 16.3922C4.23243 16.0947 5.14417 15.7492 6.32465 15.7492H7.24599C9.13667 15.7492 11.7279 18.2829 12.0926 19.7801C12.4477 19.7321 12.8028 19.3866 12.8028 19.0315C12.8028 18.4845 8.62801 14.9047 8.62801 12.0159V11.2673C8.62801 10.5667 9.39579 8.2345 9.64532 7.62987C9.84687 7.1788 11.0177 4.44356 11.0177 4.2996C10.4611 4.59711 8.77197 6.4398 8.32089 7.03484C7.69706 7.8794 6.88129 9.61652 6.88129 11.0177ZM12.083 3.25349C12.083 4.05007 12.5437 4.84664 12.5437 5.84477V5.89275C12.5437 7.23638 10.6051 10.1252 10.6051 12.2174C10.6051 13.657 11.4208 15.0006 12.131 15.7012C12.7453 16.2963 14.3192 17.4959 15.2886 17.6879C15.2886 12.1118 19.3674 11.4688 19.3674 8.92551V7.98497C19.3674 7.14041 17.8894 5.39369 17.3808 4.89463C16.613 4.14604 15.5477 3.09993 14.0217 3.09993L13.3115 3.05194L12.083 3.25349ZM30.2796 6.03671H29.4158C27.3236 6.03671 25.8456 6.67974 24.8763 7.83142C24.1085 8.78155 23.2448 10.7682 23.2448 12.4573C24.1661 12.4573 25.2314 11.9103 26.6614 11.9103H26.8629C28.6481 11.9103 30.5291 13.4555 32.1127 13.4555H32.5734C34.6656 13.4555 37.1129 9.77008 37.1129 7.8794V7.28437C37.1129 6.64135 36.4027 4.94262 36.038 4.69309C33.3891 6.4398 34.2625 6.03671 30.2796 6.03671Z" fill="url(#paint0_linear_2133_297)"/>
<defs>
<linearGradient id="paint0_linear_2133_297" x1="-7.47822" y1="82.7342" x2="181.812" y2="-59.959" gradientUnits="userSpaceOnUse">
<stop stop-color="#36E2F7"/>
<stop offset="0.3294" stop-color="#A63CD2"/>
<stop offset="0.6588" stop-color="#D03080"/>
<stop offset="0.7686" stop-color="#FA232E"/>
<stop offset="1" stop-color="#FA232E"/>
</linearGradient>
</defs>
</svg>
