<svg width="19" height="18" viewBox="0 0 19 18" fill="none" xmlns="http://www.w3.org/2000/svg">
<g id="user-circle-svgrepo-com 1">
<rect width="18" height="18" transform="translate(0.5)" fill="#030206"/>
<path id="Vector" d="M9.5 9C10.7426 9 11.75 7.99264 11.75 6.75C11.75 5.50736 10.7426 4.5 9.5 4.5C8.25736 4.5 7.25 5.50736 7.25 6.75C7.25 7.99264 8.25736 9 9.5 9Z" stroke="#CDBDF3" stroke-width="0.9"/>
<path id="Vector_2" d="M9.49902 16.5002C13.6412 16.5002 16.999 13.1424 16.999 9.00024C16.999 4.85811 13.6412 1.50024 9.49902 1.50024C5.35689 1.50024 1.99902 4.85811 1.99902 9.00024C1.99902 13.1424 5.35689 16.5002 9.49902 16.5002Z" stroke="#CDBDF3" stroke-width="0.9"/>
<path id="Vector_3" d="M13.9762 15C13.8569 12.8314 13.1929 11.25 9.49932 11.25C5.8058 11.25 5.14182 12.8314 5.02246 15" stroke="#CDBDF3" stroke-width="0.9" stroke-linecap="round"/>
</g>
</svg>
