<svg width="246" height="50" viewBox="0 0 246 50" fill="none" xmlns="http://www.w3.org/2000/svg">
<g id="Frame" clip-path="url(#clip0_54_1359)">
<path id="Vector" d="M77.8932 13.6138C77.8932 16.2383 77.063 18.2469 75.4293 19.6126C73.7956 21.0052 71.4391 21.7015 68.4128 21.7015C65.3598 21.7015 63.0032 21.0052 61.3695 19.6126C59.709 18.2469 58.8789 16.2383 58.8789 13.6138V2.68722H63.2441V13.9619C63.2441 14.9796 63.4314 15.7563 63.7797 16.292C64.1278 16.8543 64.6902 17.2293 65.4134 17.4167C66.1364 17.6311 67.154 17.738 68.4127 17.738C69.6714 17.738 70.6891 17.6311 71.4121 17.4167C72.1351 17.2023 72.6977 16.8273 73.0458 16.2651C73.3938 15.7295 73.5546 14.9527 73.5546 13.9619V2.68722H77.8931L77.8932 13.6138ZM80.6515 17.2829L91.257 6.51689H80.9462V2.68722H97.1218V6.97223L86.4632 17.6042H97.3896V21.434H80.6515V17.2829ZM100.389 2.68722H104.862V21.4339H100.389V2.68722ZM109.066 2.68722H114.878L122.349 13.105L124.117 15.6224H124.224L124.197 13.1585V2.68722H128.536V21.4339H122.966L115.279 10.6143L113.485 8.04338H113.378L113.405 10.6143V21.4339H109.066V2.68722ZM137.079 6.67749V10.4805H145.997V14.3369H137.079V21.4339H132.714V2.68722H146.88V6.67749H137.079ZM160.004 21.7015C157.888 21.7015 155.986 21.2999 154.353 20.5233C152.719 19.7467 151.434 18.6487 150.523 17.2024C149.585 15.7564 149.131 14.0691 149.131 12.1141C149.131 10.1591 149.585 8.44506 150.523 6.97223C151.434 5.49915 152.719 4.37437 154.38 3.5979C156.013 2.82122 157.888 2.41954 160.004 2.41954C162.119 2.41954 164.021 2.82133 165.655 3.5979C167.288 4.37448 168.546 5.49927 169.457 6.97223C170.367 8.44518 170.823 10.1591 170.823 12.1141C170.823 14.0691 170.367 15.7564 169.457 17.2024C168.52 18.6487 167.261 19.7467 165.628 20.5233C163.994 21.3 162.119 21.7015 160.004 21.7015ZM160.004 17.738C162.199 17.738 163.806 17.2828 164.824 16.3722C165.815 15.4884 166.324 14.0424 166.324 12.0607C166.324 10.6144 166.109 9.48951 165.655 8.65943C165.199 7.82924 164.529 7.24013 163.619 6.89187C162.709 6.54383 161.503 6.38288 160.004 6.38288C158.503 6.38288 157.299 6.54372 156.388 6.89187C155.45 7.24001 154.782 7.82924 154.326 8.65943C153.87 9.48951 153.657 10.6144 153.657 12.0607C153.657 13.5336 153.87 14.685 154.326 15.5153C154.782 16.3456 155.45 16.9079 156.362 17.2294C157.272 17.5774 158.477 17.738 160.004 17.738ZM183.544 21.7015C181.401 21.7015 179.5 21.2999 177.866 20.5233C176.206 19.7467 174.921 18.6487 174.009 17.2024C173.072 15.7564 172.617 14.0691 172.617 12.1141C172.617 10.1323 173.045 8.41847 173.93 6.9454C174.813 5.49915 176.072 4.37437 177.705 3.5978C179.339 2.82112 181.294 2.41943 183.544 2.41943C186.355 2.41943 188.605 3.08881 190.319 4.40118C192.006 5.74024 193.051 7.72182 193.453 10.3197L189.087 11.15L189.034 11.1233C188.82 9.83754 188.551 8.87369 188.204 8.20398C187.856 7.53463 187.346 7.07906 186.65 6.78456C185.927 6.51677 184.91 6.38276 183.544 6.38276C181.911 6.38276 180.651 6.5436 179.741 6.89175C178.804 7.2399 178.161 7.82913 177.759 8.65932C177.357 9.48939 177.143 10.6143 177.143 12.0606C177.143 13.5336 177.357 14.6581 177.759 15.4883C178.161 16.3186 178.83 16.8811 179.768 17.2291C180.678 17.5773 181.936 17.738 183.544 17.738C184.91 17.738 185.927 17.5774 186.65 17.2827C187.373 16.9882 187.883 16.5327 188.23 15.8633C188.578 15.1938 188.847 14.2298 189.034 12.971L189.088 12.9442L193.453 13.7742C193.051 16.3989 192.006 18.3808 190.319 19.693C188.605 21.0321 186.356 21.7015 183.544 21.7015ZM206.522 21.7015C204.406 21.7015 202.504 21.2999 200.871 20.5233C199.237 19.7467 197.952 18.6487 197.041 17.2024C196.104 15.7564 195.649 14.0691 195.649 12.1141C195.649 10.1591 196.104 8.44506 197.041 6.97223C197.952 5.49915 199.237 4.37437 200.898 3.5979C202.531 2.82122 204.406 2.41954 206.522 2.41954C208.638 2.41954 210.539 2.82133 212.172 3.5979C213.806 4.37448 215.064 5.49927 215.976 6.97223C216.886 8.44518 217.342 10.1591 217.342 12.1141C217.342 14.0691 216.886 15.7564 215.976 17.2024C215.037 18.6487 213.779 19.7467 212.145 20.5233C210.512 21.3 208.638 21.7015 206.522 21.7015ZM206.522 17.738C208.718 17.738 210.325 17.2828 211.343 16.3722C212.333 15.4884 212.842 14.0424 212.842 12.0607C212.842 10.6144 212.628 9.48951 212.172 8.65943C211.718 7.82924 211.048 7.24013 210.137 6.89187C209.226 6.54383 208.022 6.38288 206.522 6.38288C205.022 6.38288 203.816 6.54372 202.906 6.89187C201.969 7.24001 201.299 7.82924 200.844 8.65943C200.389 9.48951 200.174 10.6144 200.174 12.0607C200.174 13.5336 200.389 14.685 200.844 15.5153C201.299 16.3456 201.969 16.9079 202.879 17.2294C203.791 17.5774 204.995 17.738 206.522 17.738ZM220.341 2.68722H227.732L231.589 13.6674L232.767 17.497L233.946 13.6674L237.775 2.68722H245.14V21.4339H240.962V10.5071L241.015 6.73103H240.908L239.543 10.5071L235.472 21.4339H230.062L225.965 10.5071L224.626 6.73103H224.519L224.546 10.5071V21.4339H220.341V2.68722Z" fill="#B4B4B4"/>
<path id="Vector_2" fill-rule="evenodd" clip-rule="evenodd" d="M49.2 0.000204577H6.46258C2.90806 0.000204577 0 2.90817 0 6.46278V7.89942C1.16905 8.07812 2.46719 8.42315 3.87356 8.9219C8.30194 10.493 13.8156 13.5982 19.7356 17.8854C24.5469 14.3009 28.9743 11.7365 32.5657 10.4637C36.0736 9.22017 38.7964 9.20575 40.3194 10.6684C42.0448 12.3242 41.9754 15.6353 40.4367 19.9719C38.8648 24.4005 35.7598 29.9142 31.473 35.834C35.0578 40.6454 37.6215 45.0732 38.8942 48.6647C38.959 48.8453 39.0191 49.0233 39.0765 49.1999H42.7373C46.2918 49.1999 49.1999 46.2925 49.1999 42.7379L49.2 0.000204577ZM0 27.1344V42.7375C0 45.1552 1.3454 47.273 3.32437 48.3805C4.83261 48.4249 6.65774 48.0548 8.73328 47.3084C12.9644 45.7884 18.2286 42.7098 23.9853 38.3992C24.0307 38.3645 24.0965 38.3742 24.1317 38.4198C24.1634 38.4623 24.1578 38.5225 24.1202 38.5587C22.4985 40.1051 20.8827 41.5683 19.2886 42.9398C17.6656 44.3356 16.064 45.6375 14.4999 46.8347L13.5861 47.5251L13.5846 47.5264C12.7996 48.1119 12.0239 48.6705 11.2597 49.1995H31.2095C32.6867 47.4986 32.6031 44.5 31.2108 40.6247C29.6906 36.3936 26.6117 31.1297 22.3011 25.3724C22.2664 25.3269 22.2758 25.2605 22.3217 25.2259C22.3644 25.1941 22.4245 25.1999 22.4603 25.2374C24.0064 26.8593 25.471 28.4753 26.8426 30.0694C28.1991 31.6468 29.4666 33.2041 30.6364 34.7268C32.6618 30.7772 33.9683 27.2739 34.4348 24.445C34.8854 21.7106 34.5514 19.6111 33.3229 18.3561C31.6682 16.6663 28.5756 16.6922 24.5261 18.1474C20.295 19.6677 15.0315 22.7457 9.27439 27.0566C9.22867 27.091 9.16321 27.082 9.12771 27.0358C9.0962 26.9932 9.10193 26.933 9.13978 26.8974C10.7609 25.3518 12.3757 23.8885 13.9692 22.518C15.5466 21.1605 17.1057 19.8926 18.6286 18.7225C14.6791 16.697 11.1757 15.3899 8.34704 14.9234C5.61206 14.4723 3.513 14.8064 2.25792 16.0352C0.567496 17.6901 0.594193 20.7828 2.04925 24.8315C3.56905 29.0626 6.64782 34.3266 10.9585 40.0828C10.9933 40.1288 10.9832 40.1946 10.9371 40.2293C10.895 40.2615 10.8349 40.2558 10.7987 40.2176C9.25301 38.5962 7.79039 36.9821 6.41952 35.3885C5.02318 33.765 3.72074 32.1627 2.52346 30.5979L1.8327 29.6844L1.83158 29.6827C1.18797 28.8204 0.576702 27.9695 0 27.1344Z" fill="#B4B4B4"/>
<path id="Vector_3" d="M60.5846 37.5075C60.3278 37.5075 60.0835 37.4762 59.8517 37.4073C59.6136 37.3384 59.4067 37.2256 59.2315 37.069C59.0558 36.9124 58.9307 36.7056 58.8555 36.4489H59.2438C59.3253 36.6305 59.4318 36.781 59.576 36.8873C59.72 36.9938 59.8767 37.0753 60.0584 37.119C60.2337 37.1693 60.4091 37.1944 60.5845 37.1944C60.7788 37.1944 60.9666 37.163 61.1483 37.1004C61.33 37.0439 61.4741 36.95 61.5868 36.8246C61.6997 36.6993 61.756 36.5365 61.756 36.3298C61.756 36.1669 61.7248 36.0355 61.6621 35.9352C61.5931 35.835 61.5055 35.7534 61.3991 35.6908C61.2863 35.6344 61.1548 35.5843 61.0105 35.5404C60.9041 35.5091 60.7913 35.478 60.6786 35.4466C60.5659 35.4214 60.4593 35.3964 60.3529 35.365C60.2463 35.3338 60.1398 35.3024 60.0458 35.2711C59.9143 35.2336 59.7891 35.1897 59.6638 35.1333C59.5321 35.0769 59.4194 35.0079 59.3254 34.9266C59.2253 34.8452 59.1438 34.7386 59.0874 34.6196C59.0247 34.5005 58.9937 34.3501 58.9937 34.1748C58.9937 33.993 59.0188 33.8366 59.0751 33.7049C59.1315 33.5733 59.2065 33.4605 59.3068 33.3667C59.4071 33.2729 59.5199 33.1974 59.6513 33.1411C59.783 33.0847 59.9208 33.0473 60.0711 33.0159C60.2151 32.9908 60.3654 32.978 60.5222 32.978C60.7602 32.978 60.9858 33.0095 61.1926 33.0784C61.3992 33.1474 61.5747 33.2539 61.7187 33.4041C61.8628 33.5545 61.9567 33.7548 61.9944 34.0119H61.6311C61.5871 33.8301 61.512 33.6922 61.3992 33.5859C61.2802 33.4795 61.1487 33.4041 60.9919 33.3604C60.8354 33.3165 60.6788 33.2914 60.5159 33.2914C60.3844 33.2914 60.2527 33.3039 60.1213 33.329C59.9896 33.3604 59.8643 33.4041 59.7515 33.4669C59.6388 33.5295 59.5449 33.611 59.4759 33.7176C59.407 33.8239 59.3695 33.9617 59.3695 34.1246C59.3695 34.2873 59.4071 34.419 59.4759 34.5255C59.5449 34.6321 59.6326 34.7135 59.7453 34.7762C59.8519 34.8388 59.977 34.8952 60.115 34.939C60.2968 34.9955 60.4909 35.0455 60.6851 35.0894C60.8792 35.1332 61.0672 35.1896 61.2426 35.2459C61.3679 35.2836 61.487 35.3337 61.5933 35.39C61.6999 35.4527 61.7938 35.528 61.8753 35.6093C61.9567 35.6908 62.0194 35.7847 62.0631 35.8913C62.1071 35.9976 62.1322 36.1231 62.1322 36.2545C62.1322 36.4863 62.0884 36.6806 62.0067 36.8372C61.9191 36.9938 61.8001 37.1254 61.656 37.2256C61.5119 37.3258 61.3428 37.3948 61.1612 37.4387C60.9794 37.4887 60.785 37.5075 60.5846 37.5075ZM63.0905 37.4575V33.0283H63.4477V37.4575H63.0905ZM64.5879 37.4575V33.0283H65.0765L67.7453 37.0065V33.0283H68.1024V37.4575H67.6326L64.9451 33.4794V37.4575H64.5879ZM71.0217 37.5075C70.5708 37.5075 70.1949 37.4073 69.9004 37.2131C69.5997 37.019 69.3742 36.7559 69.2301 36.4176C69.0798 36.0855 69.0046 35.7096 68.9984 35.2898C68.9921 34.9641 69.036 34.6634 69.1173 34.3814C69.1987 34.1058 69.3179 33.8614 69.4871 33.6483C69.6562 33.4418 69.8629 33.2725 70.1198 33.1536C70.3704 33.0345 70.6649 32.978 71.0032 32.978C71.2787 32.978 71.5293 33.0157 71.7611 33.091C71.9867 33.1724 72.1808 33.2851 72.35 33.4418C72.5129 33.5983 72.6383 33.7925 72.726 34.0369H72.3188C72.2498 33.8739 72.1495 33.7362 72.0181 33.6234C71.8864 33.5169 71.7298 33.429 71.5543 33.3727C71.379 33.3163 71.1973 33.2913 71.0095 33.2913C70.7211 33.2913 70.4708 33.3413 70.264 33.448C70.057 33.5544 69.888 33.6983 69.7565 33.8801C69.6249 34.062 69.5246 34.2749 69.4681 34.5066C69.4056 34.7445 69.3743 34.9955 69.3743 35.2648C69.3743 35.6155 69.4309 35.9349 69.5498 36.2294C69.6625 36.5238 69.8442 36.7558 70.0884 36.9311C70.3328 37.1065 70.6398 37.1942 71.0218 37.1942C71.3413 37.1942 71.617 37.1316 71.8427 37C72.0618 36.8748 72.2373 36.6931 72.3562 36.4612C72.4753 36.2294 72.538 35.9538 72.5442 35.6406H71.0218V35.3211H72.8763V35.6093C72.8763 35.9851 72.8011 36.3171 72.6506 36.599C72.5003 36.8872 72.2874 37.1128 72.0117 37.2693C71.7298 37.4259 71.4039 37.5075 71.0217 37.5075ZM73.7721 37.4575V33.0283H74.1293V37.1317H76.6666V37.4573L73.7721 37.4575ZM77.343 37.4575V33.0283H80.2373V33.3539H77.7V35.0955H79.9803V35.4213H77.7V37.1316H80.2373V37.4573L77.343 37.4575ZM82.8247 37.4575V33.0283H83.1818V37.4575H82.8247ZM84.3219 37.4575V33.0283H84.8106L87.4794 37.0065V33.0283H87.8365V37.4575H87.3668L84.6791 33.4794V37.4575H84.3219ZM90.004 37.4575V33.3541H88.5194V33.0284H91.8459V33.3541H90.3613V37.4575H90.004ZM92.5289 37.4575V33.0283H95.4233V33.3539H92.8859V35.0955H95.1662V35.4213H92.8859V37.1316H95.4233V37.4573L92.5289 37.4575ZM98.0982 37.5075C97.6471 37.5075 97.2713 37.4073 96.9769 37.2131C96.6762 37.019 96.4506 36.7559 96.3065 36.4176C96.1561 36.0855 96.081 35.7096 96.0747 35.2898C96.0685 34.9641 96.1125 34.6634 96.1938 34.3814C96.2752 34.1058 96.3941 33.8614 96.5635 33.6483C96.7327 33.4418 96.9394 33.2725 97.1961 33.1536C97.4468 33.0345 97.7413 32.978 98.0796 32.978C98.3551 32.978 98.6058 33.0157 98.8375 33.091C99.0632 33.1724 99.2573 33.2851 99.4264 33.4418C99.5893 33.5983 99.7148 33.7925 99.8024 34.0369H99.3953C99.3263 33.8739 99.2259 33.7362 99.0945 33.6234C98.963 33.5169 98.8062 33.429 98.6309 33.3727C98.4555 33.3163 98.2737 33.2913 98.0858 33.2913C97.7976 33.2913 97.5471 33.3413 97.3404 33.448C97.1335 33.5544 96.9644 33.6983 96.833 33.8801C96.7014 34.062 96.601 34.2749 96.5447 34.5066C96.4821 34.7445 96.4507 34.9955 96.4507 35.2648C96.4507 35.6155 96.5072 35.9349 96.6263 36.2294C96.739 36.5238 96.9207 36.7558 97.1648 36.9311C97.4092 37.1065 97.7162 37.1942 98.0983 37.1942C98.4178 37.1942 98.6934 37.1316 98.9191 37C99.1383 36.8748 99.3137 36.6931 99.4327 36.4612C99.5517 36.2294 99.6144 35.9538 99.6207 35.6406H98.0983V35.3211H99.9527V35.6093C99.9527 35.9851 99.8775 36.3171 99.7271 36.599C99.5768 36.8872 99.3638 37.1128 99.0882 37.2693C98.8062 37.4259 98.4803 37.5075 98.0982 37.5075ZM100.848 37.4575V33.0283H102.477C102.709 33.0283 102.922 33.0534 103.116 33.0972C103.304 33.1473 103.467 33.2224 103.605 33.329C103.737 33.4354 103.843 33.5733 103.918 33.7426C103.987 33.9179 104.025 34.1309 104.025 34.3753C104.025 34.6071 103.981 34.8076 103.899 34.9767C103.818 35.146 103.693 35.2901 103.536 35.4028C103.379 35.5155 103.191 35.597 102.972 35.6471L103.937 37.4576H103.542L102.603 35.7097H101.206V37.4576L100.848 37.4575ZM101.206 35.39H102.302C102.477 35.39 102.647 35.3776 102.809 35.3463C102.972 35.3212 103.116 35.271 103.248 35.1959C103.373 35.1207 103.474 35.0141 103.549 34.8764C103.618 34.7448 103.655 34.5695 103.655 34.3564C103.661 34.0996 103.611 33.8928 103.505 33.7488C103.398 33.6046 103.248 33.4983 103.066 33.4418C102.878 33.3853 102.659 33.3541 102.415 33.3541H101.206L101.206 35.39ZM104.469 37.4575L106.18 33.0283H106.637L108.36 37.4575H107.959L107.571 36.4613H105.246L104.864 37.4575H104.469ZM105.365 36.1418H107.452L106.412 33.3979L105.365 36.1418Z" fill="#B4B4B4"/>
<path id="Vector_4" d="M109.73 37.4575V33.354H108.245V33.0283H111.572V33.354H110.087V37.4575H109.73Z" fill="#B4B4B4"/>
<path id="Vector_5" d="M114.002 37.5077C113.545 37.5077 113.163 37.4076 112.856 37.2133C112.549 37.0192 112.317 36.7498 112.161 36.4052C112.004 36.067 111.929 35.6785 111.929 35.2461C111.929 34.814 112.01 34.4254 112.167 34.0809C112.323 33.7364 112.555 33.4671 112.862 33.2729C113.169 33.0787 113.545 32.9783 114.002 32.9783C114.46 32.9783 114.842 33.0787 115.149 33.2729C115.456 33.4733 115.681 33.7427 115.838 34.0809C115.995 34.4256 116.07 34.814 116.07 35.2461C116.07 35.6785 115.995 36.0606 115.838 36.4052C115.681 36.7498 115.45 37.0191 115.143 37.2133C114.836 37.4076 114.46 37.5077 114.002 37.5077ZM114.002 37.1945C114.385 37.1945 114.704 37.1068 114.955 36.9314C115.205 36.7561 115.393 36.518 115.512 36.2234C115.631 35.929 115.694 35.6032 115.694 35.2461C115.694 34.9767 115.663 34.7263 115.594 34.4882C115.525 34.2565 115.418 34.0495 115.28 33.868C115.142 33.6863 114.967 33.5484 114.754 33.442C114.541 33.3418 114.291 33.2917 114.002 33.2917C113.62 33.2917 113.301 33.3794 113.05 33.5612C112.793 33.7429 112.605 33.9747 112.486 34.2691C112.361 34.5634 112.298 34.8892 112.298 35.2463C112.298 35.5972 112.361 35.923 112.486 36.2174C112.612 36.5118 112.8 36.7499 113.056 36.9253C113.307 37.1071 113.62 37.1945 114.002 37.1945ZM116.966 37.4576V33.0284H118.594C118.826 33.0284 119.04 33.0535 119.234 33.0973C119.421 33.1474 119.584 33.2225 119.722 33.3291C119.854 33.4355 119.96 33.5733 120.035 33.7427C120.104 33.918 120.142 34.1311 120.142 34.3754C120.142 34.6073 120.098 34.8077 120.016 34.9768C119.934 35.1461 119.81 35.2902 119.653 35.4028C119.496 35.5156 119.309 35.5971 119.09 35.6472L120.054 37.4577H119.659L118.72 35.7098H117.323V37.4577L116.966 37.4576ZM117.323 35.3901H118.419C118.594 35.3901 118.764 35.3777 118.927 35.3463C119.09 35.3214 119.234 35.2711 119.365 35.196C119.491 35.1208 119.591 35.0142 119.666 34.8766C119.735 34.7449 119.773 34.5695 119.773 34.3566C119.779 34.0997 119.728 33.8929 119.622 33.7489C119.515 33.6047 119.365 33.4984 119.184 33.4419C118.996 33.3855 118.776 33.3542 118.532 33.3542H117.323V35.3901ZM122.761 37.4576V33.0284H125.655V33.3541H123.117V35.2522H125.304V35.578H123.117V37.4575L122.761 37.4576ZM128.311 37.5076C127.853 37.5076 127.471 37.4074 127.165 37.2132C126.858 37.0191 126.626 36.7497 126.469 36.405C126.313 36.0669 126.238 35.6784 126.238 35.246C126.238 34.8139 126.319 34.4253 126.476 34.0808C126.633 33.7363 126.863 33.467 127.17 33.2728C127.477 33.0785 127.853 32.9781 128.311 32.9781C128.768 32.9781 129.15 33.0785 129.457 33.2728C129.765 33.4733 129.99 33.7426 130.147 34.0808C130.303 34.4254 130.379 34.814 130.379 35.246C130.379 35.6784 130.303 36.0605 130.147 36.405C129.99 36.7497 129.758 37.019 129.451 37.2132C129.144 37.4074 128.768 37.5076 128.311 37.5076ZM128.311 37.1944C128.693 37.1944 129.013 37.1067 129.264 36.9314C129.514 36.756 129.702 36.5179 129.821 36.2232C129.94 35.9289 130.003 35.6031 130.003 35.246C130.003 34.9766 129.971 34.7262 129.902 34.4881C129.833 34.2564 129.726 34.0494 129.589 33.8678C129.451 33.6863 129.275 33.5483 129.063 33.4419C128.85 33.3416 128.6 33.2916 128.311 33.2916C127.929 33.2916 127.61 33.3792 127.359 33.561C127.102 33.7427 126.914 33.9746 126.794 34.2689C126.67 34.5633 126.607 34.8891 126.607 35.2461C126.607 35.5971 126.67 35.9229 126.794 36.2173C126.921 36.5116 127.108 36.7498 127.365 36.9252C127.616 37.107 127.928 37.1944 128.311 37.1944ZM131.274 37.4575V33.0283H132.903C133.135 33.0283 133.349 33.0534 133.542 33.0972C133.73 33.1473 133.893 33.2224 134.03 33.329C134.163 33.4354 134.269 33.5733 134.344 33.7426C134.413 33.9179 134.451 34.1309 134.451 34.3753C134.451 34.6071 134.406 34.8076 134.325 34.9767C134.243 35.146 134.118 35.2901 133.962 35.4028C133.805 35.5155 133.618 35.597 133.398 35.6471L134.363 37.4576H133.968L133.029 35.7097H131.631V37.4576L131.274 37.4575ZM131.631 35.39H132.728C132.903 35.39 133.072 35.3776 133.235 35.3463C133.398 35.3212 133.542 35.271 133.674 35.1959C133.8 35.1207 133.899 35.0141 133.974 34.8764C134.043 34.7448 134.081 34.5695 134.081 34.3564C134.088 34.0996 134.037 33.8928 133.931 33.7488C133.824 33.6046 133.674 33.4983 133.493 33.4418C133.304 33.3853 133.085 33.3541 132.84 33.3541H131.631V35.39ZM138.096 37.4575V33.3541H136.612V33.0284H139.939V33.3541H138.454V37.4575H138.096ZM140.622 37.4575V33.0283H140.978V35.1269H143.672V33.0283H144.03V37.4575H143.672V35.4465H140.978V37.4575H140.622ZM145.169 37.4575V33.0283H148.064V33.3539H145.527V35.0955H147.807V35.4213H145.527V37.1316H148.064V37.4573L145.169 37.4575ZM152.43 37.5075C151.973 37.5075 151.591 37.4073 151.297 37.2131C150.996 37.019 150.77 36.7496 150.626 36.4049C150.482 36.0667 150.407 35.6783 150.407 35.2459C150.407 34.8138 150.482 34.4317 150.633 34.087C150.777 33.7488 151.002 33.4794 151.309 33.2789C151.61 33.0783 151.992 32.978 152.45 32.978C152.719 32.978 152.963 33.0157 153.189 33.097C153.408 33.1787 153.603 33.2913 153.758 33.448C153.915 33.6045 154.028 33.7987 154.104 34.0369H153.734C153.633 33.7925 153.47 33.6045 153.245 33.4794C153.013 33.3539 152.75 33.2914 152.456 33.2914C152.067 33.2914 151.748 33.379 151.503 33.5608C151.253 33.7426 151.071 33.9743 150.953 34.2687C150.833 34.5631 150.77 34.8825 150.77 35.2336C150.77 35.5843 150.826 35.9102 150.946 36.2046C151.065 36.5053 151.247 36.7434 151.497 36.925C151.741 37.1068 152.061 37.1945 152.443 37.1945C152.637 37.1945 152.819 37.1694 153 37.1131C153.182 37.0565 153.339 36.9751 153.477 36.8625C153.614 36.7497 153.715 36.6118 153.777 36.449H154.185C154.103 36.6807 153.972 36.8749 153.803 37.0314C153.627 37.1881 153.421 37.3072 153.189 37.3887C152.957 37.4702 152.698 37.5075 152.43 37.5075ZM155.043 37.4575V33.0283H156.672C156.904 33.0283 157.117 33.0534 157.31 33.0972C157.499 33.1473 157.662 33.2224 157.8 33.329C157.931 33.4354 158.038 33.5733 158.113 33.7426C158.182 33.9179 158.219 34.1309 158.219 34.3753C158.219 34.6071 158.176 34.8076 158.094 34.9767C158.012 35.146 157.886 35.2901 157.731 35.4028C157.574 35.5155 157.386 35.597 157.167 35.6471L158.131 37.4576H157.736L156.797 35.7097H155.399V37.4576L155.043 37.4575ZM155.399 35.39H156.496C156.672 35.39 156.84 35.3776 157.004 35.3463C157.167 35.3212 157.311 35.271 157.442 35.1959C157.568 35.1207 157.667 35.0141 157.744 34.8764C157.811 34.7448 157.849 34.5695 157.849 34.3564C157.856 34.0996 157.806 33.8928 157.699 33.7488C157.592 33.6046 157.442 33.4983 157.261 33.4418C157.072 33.3853 156.853 33.3541 156.61 33.3541H155.401L155.399 35.39ZM159.147 37.4575V33.0283H162.04V33.3539H159.503V35.0955H161.784V35.4213H159.503V37.1316H162.04V37.4573L159.147 37.4575ZM162.454 37.4575L164.164 33.0283H164.622L166.344 37.4575H165.944L165.556 36.4613H163.23L162.849 37.4575H162.454ZM163.35 36.1418H165.436L164.396 33.3979L163.35 36.1418Z" fill="#B4B4B4"/>
<path id="Vector_6" d="M167.715 37.4573V33.3539H166.229V33.0283H169.556V33.3539H168.072V37.4573H167.715ZM170.239 37.4573V33.0282H170.597V37.4573H170.239ZM173.566 37.5074C173.108 37.5074 172.726 37.4073 172.419 37.213C172.112 37.0189 171.88 36.7494 171.725 36.4048C171.568 36.0667 171.493 35.6782 171.493 35.2458C171.493 34.8137 171.574 34.4252 171.731 34.0807C171.887 33.7362 172.118 33.4669 172.426 33.2725C172.732 33.0783 173.108 32.978 173.566 32.978C174.023 32.978 174.405 33.0783 174.713 33.2725C175.02 33.4731 175.245 33.7424 175.402 34.0807C175.558 34.4252 175.634 34.8138 175.634 35.2458C175.634 35.6782 175.558 36.0603 175.402 36.4048C175.245 36.7494 175.013 37.0188 174.706 37.213C174.399 37.4073 174.023 37.5074 173.566 37.5074ZM173.566 37.1942C173.948 37.1942 174.268 37.1065 174.519 36.9311C174.769 36.7558 174.957 36.5176 175.076 36.2231C175.194 35.9287 175.258 35.6028 175.258 35.2458C175.258 34.9764 175.226 34.726 175.157 34.488C175.088 34.2562 174.982 34.0493 174.844 33.8677C174.706 33.686 174.53 33.5482 174.318 33.4418C174.105 33.3414 173.854 33.2914 173.566 33.2914C173.184 33.2914 172.864 33.379 172.614 33.5608C172.357 33.7426 172.169 33.9743 172.05 34.2687C171.925 34.5631 171.862 34.889 171.862 35.2459C171.862 35.5969 171.925 35.9226 172.05 36.217C172.176 36.5114 172.363 36.7496 172.62 36.9249C172.87 37.1067 173.184 37.1942 173.566 37.1942ZM176.53 37.4573V33.028H177.018L179.687 37.0062V33.028H180.044V37.4573H179.574L176.887 33.4792V37.4573H176.53ZM182.393 37.4573L184.103 33.028H184.561L186.283 37.4573H185.883L185.495 36.4612H183.17L182.788 37.4573H182.393ZM183.289 36.1417H185.375L184.335 33.3976L183.289 36.1417ZM186.942 37.4573V33.028H187.43L190.099 37.0062V33.028H190.456V37.4573H189.986L187.299 33.4792V37.4573H186.942ZM191.596 37.4573V33.028H193.137C193.595 33.028 193.977 33.122 194.284 33.3038C194.591 33.4917 194.816 33.7486 194.973 34.0806C195.13 34.4126 195.205 34.801 195.205 35.2457C195.205 35.6844 195.13 36.0666 194.973 36.3986C194.816 36.7306 194.591 36.9875 194.284 37.1754C193.977 37.3634 193.594 37.4573 193.137 37.4573H191.596ZM191.953 37.1316H193.087C193.482 37.1316 193.807 37.0501 194.064 36.8935C194.322 36.7369 194.509 36.5114 194.641 36.2294C194.773 35.9476 194.835 35.6156 194.835 35.2458C194.835 34.8825 194.773 34.5566 194.647 34.2687C194.522 33.9869 194.333 33.7612 194.083 33.5983C193.833 33.4354 193.513 33.3539 193.131 33.3539H191.953V37.1316ZM199.339 37.5074C199.082 37.5074 198.839 37.4761 198.607 37.4073C198.369 37.3383 198.161 37.2255 197.986 37.0689C197.81 36.9123 197.686 36.7055 197.61 36.4487H197.999C198.079 36.6305 198.186 36.7808 198.33 36.8872C198.474 36.9937 198.631 37.0752 198.813 37.1189C198.988 37.1692 199.164 37.1942 199.339 37.1942C199.533 37.1942 199.722 37.163 199.903 37.1003C200.085 37.0438 200.229 36.95 200.341 36.8245C200.454 36.6992 200.511 36.5364 200.511 36.3297C200.511 36.1668 200.48 36.0353 200.416 35.9351C200.347 35.8349 200.261 35.7533 200.154 35.6907C200.04 35.6344 199.909 35.5843 199.765 35.5403C199.659 35.509 199.546 35.4779 199.434 35.4465C199.32 35.4214 199.213 35.3963 199.108 35.3649C199.001 35.3337 198.895 35.3023 198.801 35.271C198.669 35.2335 198.543 35.1896 198.418 35.1332C198.287 35.0769 198.174 35.0078 198.081 34.9265C197.98 34.8451 197.898 34.7385 197.842 34.6196C197.78 34.5004 197.748 34.3501 197.748 34.1746C197.748 33.9928 197.774 33.8365 197.83 33.7048C197.886 33.5733 197.961 33.4604 198.062 33.3666C198.161 33.2728 198.275 33.1974 198.406 33.141C198.537 33.0846 198.676 33.0471 198.826 33.0157C198.97 32.9907 199.12 32.978 199.277 32.978C199.514 32.978 199.741 33.0094 199.947 33.0783C200.154 33.1473 200.33 33.2538 200.474 33.404C200.618 33.5544 200.712 33.7548 200.749 34.0118H200.386C200.341 33.83 200.267 33.6921 200.154 33.5858C200.035 33.4794 199.903 33.404 199.746 33.3603C199.591 33.3163 199.434 33.2913 199.271 33.2913C199.14 33.2913 199.007 33.3039 198.876 33.3289C198.745 33.3603 198.619 33.404 198.506 33.4669C198.393 33.5294 198.3 33.6108 198.231 33.7174C198.161 33.8238 198.124 33.9616 198.124 34.1245C198.124 34.2872 198.161 34.4189 198.231 34.5254C198.3 34.632 198.388 34.7134 198.5 34.7761C198.607 34.8387 198.732 34.8951 198.87 34.939C199.052 34.9955 199.245 35.0455 199.439 35.0893C199.634 35.1331 199.821 35.1894 199.997 35.2458C200.122 35.2835 200.242 35.3335 200.349 35.3899C200.455 35.4526 200.549 35.5279 200.63 35.6093C200.712 35.6907 200.774 35.7845 200.818 35.8911C200.862 35.9975 200.887 36.123 200.887 36.2544C200.887 36.4862 200.843 36.6804 200.762 36.8371C200.674 36.9937 200.555 37.1252 200.411 37.2255C200.267 37.3257 200.098 37.3947 199.916 37.4386C199.735 37.4886 199.539 37.5074 199.339 37.5074ZM203.53 37.5074C203.129 37.5074 202.804 37.4259 202.553 37.2569C202.297 37.0876 202.115 36.8622 201.996 36.5678C201.877 36.2797 201.814 35.9475 201.814 35.5715V33.028H202.177V35.5528C202.177 35.8597 202.222 36.1353 202.315 36.3796C202.403 36.6303 202.547 36.8307 202.748 36.9748C202.948 37.1188 203.212 37.1941 203.537 37.1941C203.875 37.1941 204.144 37.1188 204.338 36.9685C204.533 36.8243 204.677 36.624 204.765 36.3733C204.846 36.1291 204.89 35.8534 204.89 35.5527V33.028H205.253V35.5715C205.253 35.9474 205.197 36.2796 205.078 36.5676C204.959 36.862 204.777 37.0875 204.52 37.2568C204.263 37.4259 203.938 37.5074 203.53 37.5074ZM206.361 37.4573V33.0282H207.853C208.172 33.0282 208.448 33.0782 208.68 33.1786C208.906 33.2849 209.082 33.4417 209.2 33.6546C209.319 33.8677 209.381 34.137 209.381 34.4689C209.381 34.7946 209.312 35.064 209.168 35.2771C209.024 35.4964 208.824 35.6593 208.58 35.7659C208.329 35.8723 208.047 35.9287 207.734 35.9287H206.719V37.4573H206.361ZM206.719 35.6093H207.716C208.103 35.6093 208.417 35.5152 208.655 35.3274C208.893 35.1456 209.012 34.8513 209.012 34.444C209.012 34.062 208.906 33.78 208.698 33.6107C208.492 33.4417 208.197 33.3539 207.822 33.3539H206.719V35.6093ZM210.283 37.4573V33.0282H211.775C212.094 33.0282 212.37 33.0782 212.602 33.1786C212.828 33.2849 213.002 33.4417 213.122 33.6546C213.241 33.8677 213.303 34.137 213.303 34.4689C213.303 34.7946 213.234 35.064 213.09 35.2771C212.946 35.4964 212.746 35.6593 212.501 35.7659C212.251 35.8723 211.969 35.9287 211.656 35.9287H210.641V37.4573H210.283ZM210.641 35.6093H211.636C212.025 35.6093 212.338 35.5152 212.577 35.3274C212.815 35.1456 212.934 34.8513 212.934 34.444C212.934 34.062 212.828 33.78 212.62 33.6107C212.414 33.4417 212.119 33.3539 211.743 33.3539H210.641V35.6093ZM216.035 37.5074C215.577 37.5074 215.195 37.4073 214.888 37.213C214.581 37.0189 214.349 36.7494 214.192 36.4048C214.037 36.0667 213.962 35.6782 213.962 35.2458C213.962 34.8137 214.043 34.4252 214.199 34.0807C214.355 33.7362 214.587 33.4669 214.894 33.2725C215.201 33.0783 215.577 32.978 216.035 32.978C216.492 32.978 216.874 33.0783 217.181 33.2725C217.488 33.4731 217.714 33.7424 217.871 34.0807C218.027 34.4252 218.103 34.8138 218.103 35.2458C218.103 35.6782 218.027 36.0603 217.871 36.4048C217.714 36.7494 217.482 37.0188 217.175 37.213C216.868 37.4073 216.492 37.5074 216.035 37.5074ZM216.035 37.1942C216.417 37.1942 216.737 37.1065 216.987 36.9311C217.238 36.7558 217.426 36.5176 217.545 36.2231C217.663 35.9287 217.727 35.6028 217.727 35.2458C217.727 34.9764 217.695 34.726 217.626 34.488C217.557 34.2562 217.45 34.0493 217.313 33.8677C217.175 33.686 216.999 33.5482 216.786 33.4418C216.574 33.3414 216.323 33.2914 216.035 33.2914C215.653 33.2914 215.333 33.379 215.083 33.5608C214.826 33.7426 214.638 33.9743 214.518 34.2687C214.394 34.5631 214.331 34.889 214.331 35.2459C214.331 35.5969 214.394 35.9226 214.518 36.217C214.643 36.5114 214.832 36.7496 215.089 36.9249C215.339 37.1067 215.652 37.1942 216.035 37.1942ZM218.998 37.4573V33.028H220.627C220.859 33.028 221.072 33.0531 221.266 33.0969C221.454 33.1471 221.617 33.2223 221.754 33.3289C221.886 33.4352 221.993 33.5731 222.068 33.7424C222.137 33.9177 222.175 34.1307 222.175 34.3752C222.175 34.6069 222.13 34.8074 222.049 34.9765C221.967 35.1458 221.842 35.2898 221.686 35.4025C221.529 35.5152 221.341 35.5968 221.121 35.6469L222.087 37.4573H221.692L220.752 35.7094H219.355V37.4573H218.998ZM219.355 35.3899H220.451C220.627 35.3899 220.796 35.3773 220.959 35.3461C221.121 35.321 221.266 35.2707 221.398 35.1957C221.523 35.1205 221.623 35.014 221.698 34.8762C221.767 34.7445 221.804 34.5693 221.804 34.3562C221.81 34.0993 221.761 33.8927 221.654 33.7486C221.548 33.6044 221.398 33.498 221.216 33.4417C221.028 33.3852 220.809 33.3539 220.564 33.3539H219.355V35.3899ZM224.129 37.4573V33.3539H222.644V33.0282H225.971V33.3539H224.486V37.4573H224.129Z" fill="#B4B4B4"/>
<path id="Vector_7" d="M60.8713 45.2351C60.4141 45.2351 60.0321 45.135 59.7249 44.9407C59.418 44.7466 59.1862 44.4772 59.0294 44.1325C58.8729 43.7943 58.7979 43.4059 58.7979 42.9736C58.7979 42.5414 58.8793 42.1529 59.0359 41.8082C59.1924 41.4637 59.4242 41.1944 59.7312 41.0003C60.038 40.8061 60.4141 40.7057 60.8713 40.7057C61.3287 40.7057 61.7108 40.8061 62.0179 41.0003C62.3249 41.2007 62.5504 41.47 62.707 41.8082C62.8635 42.153 62.9389 42.5414 62.9389 42.9736C62.9389 43.4059 62.8635 43.7879 62.707 44.1325C62.5504 44.4772 62.3186 44.7465 62.0115 44.9407C61.7046 45.135 61.3287 45.2351 60.8713 45.2351ZM60.8713 44.9219C61.2536 44.9219 61.5731 44.8341 61.8237 44.6589C62.0742 44.4834 62.2622 44.2453 62.3812 43.9508C62.5003 43.6563 62.5631 43.3305 62.5631 42.9736C62.5631 42.7041 62.5317 42.4536 62.4627 42.2155C62.3937 41.9839 62.2873 41.777 62.1493 41.5954C62.0115 41.4137 61.8361 41.2758 61.6232 41.1693C61.4101 41.0692 61.1597 41.0192 60.8713 41.0192C60.4893 41.0192 60.1698 41.1068 59.9191 41.2886C59.6622 41.4702 59.4742 41.702 59.3553 41.9964C59.2301 42.2907 59.1673 42.6166 59.1673 42.9737C59.1673 43.3246 59.2301 43.6504 59.3553 43.9448C59.4806 44.2392 59.6686 44.4773 59.9253 44.6527C60.1759 44.8344 60.4893 44.9219 60.8713 44.9219ZM63.8346 45.185V40.7558H66.7291V41.0815H64.1919V42.9797H66.3782V43.3053H64.1919V45.1849L63.8346 45.185ZM70.7886 45.235C70.5317 45.235 70.2873 45.2036 70.0555 45.1349C69.8176 45.0659 69.6108 44.9532 69.4354 44.7965C69.2599 44.6398 69.1347 44.4332 69.0593 44.1764H69.4479C69.5293 44.3581 69.6359 44.5084 69.7799 44.6147C69.9241 44.7213 70.0806 44.8028 70.2623 44.8466C70.4377 44.8968 70.613 44.9219 70.7885 44.9219C70.9827 44.9219 71.1705 44.8905 71.3523 44.8278C71.5341 44.7715 71.6779 44.6775 71.7908 44.5522C71.9037 44.4267 71.96 44.264 71.96 44.0573C71.96 43.8943 71.9287 43.7629 71.8661 43.6627C71.7971 43.5626 71.7093 43.4809 71.603 43.4182C71.4903 43.3618 71.3586 43.3118 71.2146 43.268C71.108 43.2367 70.9952 43.2054 70.8824 43.1741C70.7697 43.1489 70.6631 43.124 70.5568 43.0925C70.4502 43.0612 70.3437 43.0299 70.2499 42.9986C70.1184 42.961 69.993 42.9172 69.8676 42.8609C69.7361 42.8044 69.6233 42.7354 69.5294 42.6541C69.4293 42.5727 69.3476 42.4661 69.2914 42.3471C69.2287 42.2281 69.1976 42.0777 69.1976 41.9023C69.1976 41.7205 69.2226 41.5641 69.279 41.4324C69.3353 41.3008 69.4104 41.1881 69.5108 41.0942C69.6111 41.0004 69.7239 40.925 69.8553 40.8686C69.987 40.8123 70.1247 40.7747 70.275 40.7433C70.4191 40.7182 70.5694 40.7056 70.7262 40.7056C70.9642 40.7056 71.1898 40.737 71.3966 40.806C71.6032 40.8748 71.7786 40.9813 71.9227 41.1316C72.0667 41.2819 72.1607 41.4823 72.1984 41.7394H71.835C71.7911 41.5577 71.716 41.4198 71.6032 41.3134C71.4842 41.2069 71.3526 41.1316 71.1959 41.0878C71.0394 41.044 70.8827 41.0189 70.7197 41.0189C70.5883 41.0189 70.4567 41.0315 70.3252 41.0565C70.1936 41.0878 70.0683 41.1316 69.9555 41.1943C69.8427 41.257 69.7488 41.3385 69.6798 41.445C69.6111 41.5515 69.5734 41.6892 69.5734 41.8522C69.5734 42.0149 69.6111 42.1465 69.6798 42.253C69.7488 42.3596 69.8365 42.441 69.9493 42.5036C70.0557 42.5664 70.181 42.6227 70.319 42.6665C70.5008 42.7229 70.6948 42.7729 70.8891 42.8169C71.0832 42.8608 71.2711 42.9171 71.4466 42.9735C71.5719 43.0111 71.6909 43.0611 71.7973 43.1174C71.9039 43.1802 71.9977 43.2554 72.0793 43.3368C72.1607 43.4182 72.2234 43.5122 72.2671 43.6188C72.311 43.7252 72.3361 43.8506 72.3361 43.9821C72.3361 44.2139 72.2924 44.408 72.2107 44.5646C72.123 44.7213 72.0041 44.8528 71.86 44.9532C71.7159 45.0533 71.5467 45.1222 71.3651 45.1662C71.1834 45.2163 70.989 45.235 70.7886 45.235Z" fill="#B4B4B4"/>
<path id="Vector_8" d="M74.2601 45.185V41.0816H72.7754V40.7559H76.1019V41.0816H74.6172V45.185H74.2601Z" fill="#B4B4B4"/>
<path id="Vector_9" d="M75.9902 45.185L77.7006 40.7559H78.1578L79.8807 45.185H79.4798L79.0914 44.1887H76.7671L76.385 45.185H75.9902ZM76.8861 43.8693H78.9723L77.9323 41.1254L76.8861 43.8693Z" fill="#B4B4B4"/>
<path id="Vector_10" d="M81.2502 45.185V41.0816H79.7656V40.7559H83.0921V41.0816H81.6075V45.185H81.2502ZM83.7751 45.185V40.7558H86.6694V41.0815H84.1322V42.8229H86.4125V43.1488H84.1322V44.859H86.6694V45.1849L83.7751 45.185ZM89.2568 45.185V40.7558H89.6138V45.185H89.2568ZM90.754 45.185V40.7558H91.2426L93.9115 44.7339V40.7558H94.2686V45.185H93.7989L91.1113 41.2068V45.185H90.754ZM95.4088 45.185V40.7558H98.3031V41.0815H95.7658V42.9797H97.9523V43.3053H95.7658V45.1849L95.4088 45.185ZM100.959 45.235C100.502 45.235 100.12 45.1349 99.8129 44.9406C99.506 44.7465 99.2741 44.4771 99.1174 44.1323C98.9609 43.7942 98.8857 43.4058 98.8857 42.9735C98.8857 42.5413 98.9672 42.1527 99.1237 41.8082C99.2803 41.4637 99.5122 41.1943 99.8192 41.0002C100.126 40.806 100.502 40.7056 100.959 40.7056C101.417 40.7056 101.799 40.806 102.106 41.0002C102.413 41.2006 102.638 41.4699 102.795 41.8082C102.951 42.1529 103.027 42.5414 103.027 42.9735C103.027 43.4058 102.951 43.7878 102.795 44.1323C102.638 44.4771 102.407 44.7464 102.1 44.9406C101.792 45.1349 101.417 45.235 100.959 45.235ZM100.959 44.9219C101.341 44.9219 101.661 44.834 101.912 44.6588C102.162 44.4833 102.35 44.2452 102.469 43.9507C102.588 43.6563 102.651 43.3304 102.651 42.9735C102.651 42.704 102.62 42.4535 102.551 42.2155C102.482 41.9838 102.375 41.7768 102.237 41.5953C102.1 41.4136 101.924 41.2757 101.711 41.1693C101.498 41.0691 101.248 41.019 100.959 41.019C100.577 41.019 100.258 41.1067 100.007 41.2885C99.7502 41.4702 99.5622 41.7019 99.4432 41.9962C99.3179 42.2906 99.2553 42.6165 99.2553 42.9736C99.2553 43.3245 99.3179 43.6503 99.4432 43.9447C99.5685 44.2391 99.7565 44.4772 100.013 44.6526C100.264 44.8343 100.577 44.9219 100.959 44.9219ZM103.923 45.1849V40.7557H105.551C105.783 40.7557 105.996 40.7808 106.19 40.8245C106.378 40.8747 106.541 40.9499 106.679 41.0564C106.811 41.1629 106.917 41.3007 106.992 41.4699C107.061 41.6453 107.099 41.8584 107.099 42.1027C107.099 42.3346 107.055 42.535 106.973 42.7041C106.892 42.8734 106.767 43.0174 106.61 43.1302C106.454 43.2429 106.266 43.3244 106.046 43.3745L107.011 45.185H106.616L105.677 43.4371H104.28V45.185L103.923 45.1849ZM104.28 43.1174H105.376C105.551 43.1174 105.721 43.105 105.884 43.0737C106.047 43.0487 106.191 42.9984 106.322 42.9233C106.447 42.848 106.548 42.7415 106.623 42.6039C106.692 42.4722 106.729 42.2968 106.729 42.0839C106.735 41.827 106.685 41.6202 106.579 41.4762C106.472 41.3319 106.322 41.2256 106.14 41.1692C105.953 41.1129 105.733 41.0815 105.489 41.0815H104.28L104.28 43.1174ZM108.026 45.1849V40.7557H108.552L110.112 43.4557L111.647 40.7557H112.161V45.1849H111.804V41.1566L110.194 43.9821H110.018L108.383 41.1566V45.1849H108.026ZM112.819 45.1849L114.529 40.7557H114.986L116.709 45.1849H116.308L115.92 44.1886H113.596L113.214 45.1849H112.819ZM113.715 43.8692H115.801L114.761 41.1253L113.715 43.8692Z" fill="#B4B4B4"/>
<path id="Vector_11" d="M118.08 45.1851V41.0817H116.595V40.7561H119.921V41.0817H118.437V45.1851H118.08ZM120.604 45.1851V40.7559H120.962V45.1851H120.604ZM123.931 45.2351C123.473 45.2351 123.091 45.135 122.784 44.9407C122.477 44.7466 122.245 44.4772 122.088 44.1325C121.933 43.7943 121.858 43.4059 121.858 42.9736C121.858 42.5414 121.939 42.1529 122.096 41.8082C122.252 41.4637 122.483 41.1944 122.791 41.0003C123.097 40.8061 123.473 40.7057 123.931 40.7057C124.388 40.7057 124.77 40.8061 125.077 41.0003C125.385 41.2007 125.61 41.47 125.767 41.8082C125.923 42.153 125.999 42.5414 125.999 42.9736C125.999 43.4059 125.923 43.7879 125.767 44.1325C125.61 44.4772 125.378 44.7465 125.071 44.9407C124.764 45.135 124.388 45.2351 123.931 45.2351ZM123.931 44.9219C124.313 44.9219 124.633 44.8341 124.884 44.6589C125.134 44.4834 125.322 44.2453 125.441 43.9508C125.559 43.6563 125.623 43.3305 125.623 42.9736C125.623 42.7041 125.591 42.4536 125.522 42.2155C125.453 41.9839 125.346 41.777 125.209 41.5954C125.071 41.4137 124.895 41.2758 124.683 41.1693C124.47 41.0692 124.219 41.0192 123.931 41.0192C123.549 41.0192 123.229 41.1068 122.979 41.2886C122.722 41.4702 122.534 41.702 122.415 41.9964C122.29 42.2907 122.227 42.6166 122.227 42.9737C122.227 43.3246 122.29 43.6504 122.415 43.9448C122.539 44.2392 122.728 44.4773 122.985 44.6527C123.235 44.8344 123.548 44.9219 123.931 44.9219ZM126.894 45.185V40.7558H127.383L130.052 44.7339V40.7558H130.409V45.185H129.939L127.251 41.2068V45.185H126.894ZM134.782 45.235C134.524 45.235 134.281 45.2036 134.049 45.1349C133.811 45.0659 133.604 44.9532 133.428 44.7965C133.253 44.6398 133.128 44.4332 133.052 44.1764H133.441C133.523 44.3581 133.629 44.5084 133.772 44.6147C133.918 44.7213 134.073 44.8028 134.255 44.8466C134.431 44.8968 134.606 44.9219 134.781 44.9219C134.975 44.9219 135.164 44.8905 135.346 44.8278C135.527 44.7715 135.671 44.6775 135.784 44.5522C135.896 44.4267 135.954 44.264 135.954 44.0573C135.954 43.8943 135.922 43.7629 135.859 43.6627C135.79 43.5626 135.703 43.4809 135.596 43.4182C135.484 43.3618 135.351 43.3118 135.207 43.268C135.101 43.2367 134.988 43.2054 134.876 43.1741C134.762 43.1489 134.656 43.124 134.55 43.0925C134.444 43.0612 134.337 43.0299 134.243 42.9986C134.111 42.961 133.986 42.9172 133.86 42.8609C133.729 42.8044 133.617 42.7354 133.523 42.6541C133.422 42.5727 133.34 42.4661 133.284 42.347C133.222 42.2281 133.19 42.0777 133.19 41.9023C133.19 41.7205 133.216 41.5641 133.272 41.4324C133.328 41.3008 133.403 41.1881 133.504 41.0942C133.604 41.0004 133.717 40.925 133.848 40.8686C133.98 40.8123 134.118 40.7747 134.268 40.7433C134.412 40.7182 134.562 40.7056 134.719 40.7056C134.957 40.7056 135.183 40.737 135.39 40.806C135.596 40.8748 135.772 40.9813 135.916 41.1316C136.06 41.2819 136.154 41.4823 136.191 41.7394H135.828C135.784 41.5577 135.709 41.4198 135.596 41.3134C135.477 41.2069 135.346 41.1316 135.189 41.0878C135.033 41.044 134.876 41.0189 134.713 41.0189C134.582 41.0189 134.449 41.0315 134.318 41.0565C134.187 41.0878 134.062 41.1316 133.948 41.1943C133.836 41.257 133.742 41.3385 133.673 41.445C133.604 41.5515 133.566 41.6892 133.566 41.8522C133.566 42.0149 133.604 42.1465 133.673 42.253C133.742 42.3596 133.83 42.441 133.942 42.5036C134.049 42.5664 134.174 42.6227 134.312 42.6665C134.494 42.723 134.687 42.7729 134.882 42.8169C135.076 42.8608 135.264 42.9171 135.439 42.9735C135.565 43.0111 135.684 43.0611 135.791 43.1174C135.897 43.1802 135.991 43.2554 136.072 43.3368C136.154 43.4182 136.216 43.5122 136.26 43.6188C136.304 43.7252 136.33 43.8506 136.33 43.9821C136.33 44.2139 136.285 44.4081 136.204 44.5646C136.116 44.7213 135.997 44.8528 135.853 44.9532C135.709 45.0533 135.54 45.1222 135.358 45.1662C135.177 45.2163 134.982 45.235 134.782 45.235Z" fill="#B4B4B4"/>
<path id="Vector_12" d="M138.277 45.185V43.5186L136.704 40.7559H137.131L138.459 43.1553L139.786 40.7559H140.194L138.633 43.5123V45.185H138.277Z" fill="#B4B4B4"/>
<path id="Vector_13" d="M142.292 45.235C142.035 45.235 141.79 45.2036 141.559 45.1349C141.32 45.0659 141.114 44.9532 140.939 44.7965C140.763 44.6398 140.637 44.4332 140.562 44.1764H140.951C141.032 44.3581 141.139 44.5084 141.283 44.6147C141.427 44.7213 141.584 44.8028 141.766 44.8466C141.941 44.8968 142.116 44.9219 142.292 44.9219C142.486 44.9219 142.673 44.8905 142.856 44.8278C143.038 44.7715 143.182 44.6775 143.294 44.5522C143.407 44.4267 143.463 44.264 143.463 44.0573C143.463 43.8943 143.433 43.7629 143.369 43.6627C143.3 43.5626 143.212 43.4809 143.107 43.4182C142.993 43.3618 142.862 43.3118 142.718 43.268C142.611 43.2367 142.499 43.2054 142.385 43.1741C142.273 43.1489 142.166 43.124 142.06 43.0925C141.953 43.0612 141.848 43.0299 141.753 42.9986C141.621 42.961 141.496 42.9172 141.371 42.8609C141.24 42.8044 141.127 42.7354 141.032 42.6541C140.933 42.5727 140.851 42.4661 140.794 42.347C140.732 42.2281 140.701 42.0775 140.701 41.9023C140.701 41.7205 140.727 41.5641 140.783 41.4324C140.839 41.3008 140.914 41.1881 141.015 41.0942C141.114 41.0004 141.227 40.925 141.359 40.8686C141.49 40.8123 141.629 40.7747 141.778 40.7433C141.923 40.7182 142.072 40.7056 142.229 40.7056C142.467 40.7056 142.693 40.737 142.9 40.806C143.107 40.8748 143.281 40.9813 143.425 41.1316C143.57 41.2819 143.664 41.4823 143.702 41.7394H143.339C143.294 41.5577 143.219 41.4198 143.107 41.3134C142.987 41.2069 142.856 41.1316 142.699 41.0878C142.542 41.044 142.386 41.0189 142.224 41.0189C142.091 41.0189 141.96 41.0315 141.829 41.0565C141.696 41.0878 141.571 41.1316 141.459 41.1943C141.346 41.257 141.252 41.3385 141.183 41.445C141.114 41.5515 141.077 41.6892 141.077 41.8522C141.077 42.0149 141.114 42.1465 141.183 42.253C141.252 42.3596 141.34 42.441 141.453 42.5036C141.559 42.5664 141.685 42.6227 141.822 42.6665C142.005 42.7229 142.198 42.7729 142.392 42.8169C142.587 42.8608 142.774 42.9171 142.95 42.9735C143.075 43.0111 143.195 43.0611 143.3 43.1174C143.407 43.1802 143.502 43.2554 143.582 43.3368C143.664 43.4182 143.727 43.5122 143.77 43.6188C143.814 43.7252 143.839 43.8506 143.839 43.9821C143.839 44.2139 143.796 44.4081 143.714 44.5646C143.626 44.7213 143.507 44.8528 143.363 44.9532C143.219 45.0533 143.051 45.1222 142.868 45.1662C142.686 45.2163 142.492 45.235 142.292 45.235Z" fill="#B4B4B4"/>
<path id="Vector_14" d="M145.763 45.185V41.0816H144.278V40.7559H147.605V41.0816H146.12V45.185H145.763ZM148.288 45.185V40.7558H151.183V41.0815H148.645V42.8229H150.925V43.1488H148.645V44.859H151.183V45.1849L148.288 45.185ZM152.078 45.185V40.7558H152.605L154.164 43.4558L155.699 40.7558H156.213V45.185H155.856V41.1567L154.246 43.9821H154.07L152.435 41.1567V45.185H152.078ZM158.894 45.235C158.638 45.235 158.393 45.2036 158.161 45.1349C157.923 45.0659 157.717 44.9532 157.541 44.7965C157.366 44.6398 157.24 44.4332 157.165 44.1764H157.553C157.635 44.3581 157.742 44.5084 157.886 44.6147C158.03 44.7213 158.187 44.8028 158.368 44.8466C158.543 44.8968 158.719 44.9219 158.894 44.9219C159.089 44.9219 159.276 44.8905 159.458 44.8278C159.639 44.7715 159.783 44.6775 159.896 44.5522C160.009 44.4267 160.066 44.264 160.066 44.0573C160.066 43.8943 160.034 43.7629 159.972 43.6627C159.903 43.5626 159.815 43.4809 159.708 43.4182C159.596 43.3618 159.465 43.3118 159.321 43.268C159.214 43.2367 159.1 43.2054 158.988 43.1741C158.875 43.1489 158.769 43.124 158.662 43.0925C158.556 43.0612 158.449 43.0299 158.355 42.9986C158.224 42.961 158.099 42.9172 157.973 42.8609C157.842 42.8044 157.729 42.7354 157.635 42.6541C157.535 42.5727 157.453 42.4661 157.397 42.3471C157.334 42.2281 157.303 42.0777 157.303 41.9023C157.303 41.7205 157.328 41.5641 157.384 41.4324C157.44 41.3008 157.517 41.1881 157.616 41.0942C157.717 41.0004 157.829 40.925 157.961 40.8686C158.093 40.8123 158.23 40.7747 158.381 40.7433C158.525 40.7182 158.675 40.7056 158.832 40.7056C159.07 40.7056 159.296 40.737 159.502 40.806C159.708 40.8748 159.884 40.9813 160.028 41.1316C160.172 41.2819 160.266 41.4823 160.303 41.7394H159.94C159.897 41.5577 159.822 41.4198 159.708 41.3134C159.59 41.2069 159.458 41.1316 159.302 41.0878C159.145 41.044 158.988 41.0189 158.825 41.0189C158.694 41.0189 158.563 41.0315 158.43 41.0565C158.299 41.0878 158.174 41.1316 158.061 41.1943C157.949 41.257 157.854 41.3385 157.785 41.445C157.717 41.5515 157.679 41.6892 157.679 41.8522C157.679 42.0149 157.717 42.1465 157.785 42.253C157.854 42.3596 157.942 42.441 158.054 42.5036C158.161 42.5664 158.286 42.6227 158.424 42.6665C158.606 42.7229 158.801 42.7729 158.995 42.8169C159.188 42.8608 159.377 42.9171 159.553 42.9735C159.678 43.0111 159.796 43.0611 159.903 43.1174C160.009 43.1802 160.103 43.2554 160.185 43.3368C160.266 43.4182 160.329 43.5122 160.373 43.6188C160.417 43.7252 160.442 43.8506 160.442 43.9821C160.442 44.2139 160.398 44.408 160.316 44.5646C160.228 44.7213 160.109 44.8528 159.966 44.9532C159.822 45.0533 159.652 45.1222 159.471 45.1662C159.289 45.2163 159.095 45.235 158.894 45.235Z" fill="#B4B4B4"/>
</g>
<defs>
<clipPath id="clip0_54_1359">
<rect width="246" height="49.2" fill="white"/>
</clipPath>
</defs>
</svg>
